<svg width="111" height="84" viewBox="0 0 111 84" fill="none" xmlns="http://www.w3.org/2000/svg">
<path d="M27.7806 29.7088C27.956 30.6735 28.3507 31.419 28.9646 31.9452C29.6005 32.4495 30.4446 32.7017 31.497 32.7017C32.8564 32.7017 33.843 32.1426 34.457 31.0244C35.0709 29.8842 35.3778 27.9767 35.3778 25.3018C34.8735 26.0034 34.161 26.5515 33.2401 26.9462C32.3412 27.3409 31.3655 27.5382 30.313 27.5382C28.9098 27.5382 27.6381 27.2532 26.498 26.6831C25.3798 26.0911 24.4918 25.2251 23.834 24.0849C23.1763 22.9229 22.8474 21.5196 22.8474 19.8752C22.8474 17.4415 23.5709 15.512 25.018 14.0869C26.4651 12.6398 28.4384 11.9163 30.9379 11.9163C34.0513 11.9163 36.2439 12.9139 37.5156 14.9091C38.8092 16.9043 39.456 19.9081 39.456 23.9205C39.456 26.7708 39.2038 29.1059 38.6996 30.9257C38.2172 32.7455 37.3731 34.1268 36.1672 35.0696C34.9832 36.0124 33.3607 36.4838 31.2997 36.4838C29.6772 36.4838 28.2959 36.1769 27.1558 35.5629C26.0156 34.9271 25.1386 34.1049 24.5247 33.0963C23.9327 32.0658 23.5929 30.9367 23.5052 29.7088H27.7806ZM31.2668 23.7889C32.4069 23.7889 33.3059 23.4381 33.9636 22.7365C34.6214 22.0349 34.9503 21.0921 34.9503 19.9081C34.9503 18.6145 34.5995 17.6169 33.8979 16.9153C33.2182 16.1917 32.2863 15.83 31.1024 15.83C29.9184 15.83 28.9756 16.2027 28.274 16.9482C27.5943 17.6717 27.2544 18.6364 27.2544 19.8423C27.2544 21.0044 27.5833 21.9582 28.2411 22.7036C28.9208 23.4272 29.9293 23.7889 31.2668 23.7889ZM56.1296 18.461C55.9103 17.5402 55.5266 16.8495 54.9785 16.3891C54.4523 15.9286 53.6849 15.6984 52.6763 15.6984C51.1634 15.6984 50.0452 16.3123 49.3217 17.5402C48.6201 18.7461 48.2583 20.7194 48.2364 23.46C48.7626 22.583 49.53 21.9033 50.5386 21.421C51.5471 20.9167 52.6434 20.6645 53.8274 20.6645C55.2526 20.6645 56.5133 20.9715 57.6096 21.5854C58.7058 22.1993 59.5609 23.0983 60.1748 24.2823C60.7888 25.4443 61.0957 26.8475 61.0957 28.492C61.0957 30.0487 60.7778 31.4409 60.142 32.6688C59.528 33.8747 58.6181 34.8175 57.4122 35.4972C56.2063 36.1769 54.7702 36.5167 53.1039 36.5167C50.8236 36.5167 49.0257 36.0124 47.7102 35.0038C46.4166 33.9953 45.5067 32.592 44.9804 30.7941C44.4762 28.9743 44.224 26.7379 44.224 24.0849C44.224 20.0726 44.9147 17.0468 46.296 15.0078C47.6773 12.9468 49.8589 11.9163 52.8408 11.9163C55.1429 11.9163 56.9299 12.5411 58.2015 13.7909C59.4732 15.0406 60.2077 16.5974 60.4051 18.461H56.1296ZM52.775 24.4467C51.6129 24.4467 50.6372 24.7865 49.8479 25.4662C49.0586 26.1459 48.6639 27.1326 48.6639 28.4262C48.6639 29.7198 49.0257 30.7393 49.7493 31.4848C50.4947 32.2303 51.5362 32.603 52.8736 32.603C54.0576 32.603 54.9895 32.2412 55.6691 31.5177C56.3708 30.7941 56.7216 29.8185 56.7216 28.5906C56.7216 27.3189 56.3817 26.3104 55.702 25.5649C55.0443 24.8194 54.0686 24.4467 52.775 24.4467ZM64.8663 18.3624C64.8663 16.696 65.3487 15.3915 66.3134 14.4487C67.3 13.5059 68.5608 13.0345 70.0955 13.0345C71.6303 13.0345 72.8801 13.5059 73.8448 14.4487C74.8315 15.3915 75.3248 16.696 75.3248 18.3624C75.3248 20.0506 74.8315 21.3662 73.8448 22.309C72.8801 23.2518 71.6303 23.7232 70.0955 23.7232C68.5608 23.7232 67.3 23.2518 66.3134 22.309C65.3487 21.3662 64.8663 20.0506 64.8663 18.3624ZM85.9806 13.4291L73.0555 36.4509H68.5827L81.4749 13.4291H85.9806ZM70.0627 15.7971C68.8568 15.7971 68.2538 16.6522 68.2538 18.3624C68.2538 20.0945 68.8568 20.9605 70.0627 20.9605C70.6546 20.9605 71.1151 20.7522 71.444 20.3357C71.7729 19.8971 71.9373 19.2394 71.9373 18.3624C71.9373 16.6522 71.3124 15.7971 70.0627 15.7971ZM79.3043 31.4848C79.3043 29.7965 79.7866 28.492 80.7514 27.5711C81.738 26.6283 82.9987 26.1569 84.5335 26.1569C86.0683 26.1569 87.3071 26.6283 88.2499 27.5711C89.2146 28.492 89.697 29.7965 89.697 31.4848C89.697 33.1731 89.2146 34.4886 88.2499 35.4314C87.3071 36.3742 86.0683 36.8456 84.5335 36.8456C82.9768 36.8456 81.7161 36.3742 80.7514 35.4314C79.7866 34.4886 79.3043 33.1731 79.3043 31.4848ZM84.5006 28.9195C83.2509 28.9195 82.626 29.7746 82.626 31.4848C82.626 33.2169 83.2509 34.083 84.5006 34.083C85.7285 34.083 86.3424 33.2169 86.3424 31.4848C86.3424 29.7746 85.7285 28.9195 84.5006 28.9195Z" fill="#CAE9FF"/>
<path d="M7.02352 57.178C7.02352 57.6122 6.91885 58.0192 6.70952 58.3991C6.50795 58.779 6.1862 59.0852 5.74428 59.3178C5.31012 59.5504 4.75965 59.6667 4.0929 59.6667H2.73225V62.7834H1.10413V54.666H4.0929C4.72089 54.666 5.25584 54.7746 5.69776 54.9917C6.13968 55.2087 6.46918 55.5072 6.68627 55.8871C6.9111 56.267 7.02352 56.6973 7.02352 57.178ZM4.02312 58.3526C4.4728 58.3526 4.80617 58.2518 5.02326 58.0502C5.24034 57.8409 5.34888 57.5501 5.34888 57.178C5.34888 56.3872 4.90696 55.9918 4.02312 55.9918H2.73225V58.3526H4.02312ZM11.2729 62.8881C10.6527 62.8881 10.0945 62.7524 9.59826 62.481C9.10207 62.2019 8.71055 61.8104 8.42369 61.3064C8.14458 60.8025 8.00503 60.221 8.00503 59.562C8.00503 58.903 8.14846 58.3216 8.43532 57.8176C8.72993 57.3137 9.12921 56.926 9.63315 56.6547C10.1371 56.3756 10.6992 56.236 11.3194 56.236C11.9397 56.236 12.5017 56.3756 13.0057 56.6547C13.5096 56.926 13.905 57.3137 14.1919 57.8176C14.4865 58.3216 14.6338 58.903 14.6338 59.562C14.6338 60.221 14.4826 60.8025 14.1803 61.3064C13.8856 61.8104 13.4825 62.2019 12.9708 62.481C12.4669 62.7524 11.9009 62.8881 11.2729 62.8881ZM11.2729 61.4693C11.5675 61.4693 11.8427 61.3995 12.0986 61.2599C12.3622 61.1126 12.5715 60.8955 12.7266 60.6087C12.8816 60.3218 12.9592 59.9729 12.9592 59.562C12.9592 58.9495 12.7964 58.4805 12.4707 58.1549C12.1529 57.8215 11.7613 57.6548 11.2962 57.6548C10.831 57.6548 10.4395 57.8215 10.1216 58.1549C9.81147 58.4805 9.65641 58.9495 9.65641 59.562C9.65641 60.1745 9.80759 60.6474 10.11 60.9808C10.4201 61.3064 10.8077 61.4693 11.2729 61.4693ZM18.5261 62.8881C17.9989 62.8881 17.526 62.795 17.1073 62.6089C16.6887 62.4151 16.3553 62.1554 16.1072 61.8298C15.8669 61.5041 15.7351 61.1436 15.7118 60.7482H17.3516C17.3826 60.9963 17.5027 61.2018 17.7121 61.3646C17.9292 61.5274 18.1966 61.6088 18.5145 61.6088C18.8246 61.6088 19.065 61.5468 19.2355 61.4227C19.4138 61.2987 19.503 61.1398 19.503 60.9459C19.503 60.7366 19.3945 60.5815 19.1774 60.4808C18.968 60.3722 18.6308 60.2559 18.1656 60.1319C17.6849 60.0156 17.2895 59.8954 16.9794 59.7714C16.677 59.6473 16.4134 59.4574 16.1886 59.2015C15.9715 58.9457 15.863 58.6007 15.863 58.1665C15.863 57.8099 15.9638 57.4842 16.1654 57.1896C16.3747 56.895 16.6693 56.6624 17.0492 56.4919C17.4368 56.3213 17.8904 56.236 18.4098 56.236C19.1774 56.236 19.7899 56.4298 20.2473 56.8175C20.7047 57.1974 20.9567 57.7129 21.0032 58.3642H19.4449C19.4216 58.1083 19.3131 57.9068 19.1192 57.7595C18.9332 57.6044 18.6812 57.5269 18.3633 57.5269C18.0687 57.5269 17.84 57.5811 17.6772 57.6897C17.5221 57.7982 17.4446 57.9494 17.4446 58.1432C17.4446 58.3603 17.5531 58.527 17.7702 58.6433C17.9873 58.7518 18.3246 58.8643 18.782 58.9806C19.2472 59.0969 19.6309 59.217 19.9333 59.3411C20.2357 59.4651 20.4954 59.6589 20.7125 59.9225C20.9373 60.1784 21.0536 60.5195 21.0614 60.9459C21.0614 61.3181 20.9567 61.6515 20.7474 61.9461C20.5458 62.2407 20.2512 62.4733 19.8635 62.6438C19.4836 62.8066 19.0378 62.8881 18.5261 62.8881ZM23.4561 55.5731C23.1692 55.5731 22.9289 55.484 22.7351 55.3057C22.549 55.1196 22.456 54.8909 22.456 54.6195C22.456 54.3482 22.549 54.1233 22.7351 53.945C22.9289 53.7589 23.1692 53.6659 23.4561 53.6659C23.743 53.6659 23.9794 53.7589 24.1655 53.945C24.3593 54.1233 24.4562 54.3482 24.4562 54.6195C24.4562 54.8909 24.3593 55.1196 24.1655 55.3057C23.9794 55.484 23.743 55.5731 23.4561 55.5731ZM24.2585 56.3407V62.7834H22.6304V56.3407H24.2585ZM27.9953 57.6781V60.7948C27.9953 61.0118 28.0457 61.1708 28.1465 61.2716C28.255 61.3646 28.4334 61.4111 28.6815 61.4111H29.4374V62.7834H28.414C27.0417 62.7834 26.3556 62.1166 26.3556 60.7831V57.6781H25.588V56.3407H26.3556V54.7474H27.9953V56.3407H29.4374V57.6781H27.9953ZM31.6667 55.5731C31.3798 55.5731 31.1395 55.484 30.9457 55.3057C30.7596 55.1196 30.6665 54.8909 30.6665 54.6195C30.6665 54.3482 30.7596 54.1233 30.9457 53.945C31.1395 53.7589 31.3798 53.6659 31.6667 53.6659C31.9535 53.6659 32.19 53.7589 32.3761 53.945C32.5699 54.1233 32.6668 54.3482 32.6668 54.6195C32.6668 54.8909 32.5699 55.1196 32.3761 55.3057C32.19 55.484 31.9535 55.5731 31.6667 55.5731ZM32.4691 56.3407V62.7834H30.841V56.3407H32.4691ZM36.9967 61.2832L38.6248 56.3407H40.3576L37.9736 62.7834H35.9966L33.6241 56.3407H35.3686L36.9967 61.2832ZM47.4938 59.4225C47.4938 59.6551 47.4783 59.8644 47.4473 60.0505H42.7374C42.7761 60.5156 42.9389 60.88 43.2258 61.1436C43.5127 61.4072 43.8654 61.539 44.2841 61.539C44.8888 61.539 45.3191 61.2793 45.5749 60.7599H47.331C47.1449 61.3801 46.7883 61.8918 46.2611 62.2949C45.7339 62.6904 45.0865 62.8881 44.319 62.8881C43.6987 62.8881 43.1405 62.7524 42.6443 62.481C42.1559 62.2019 41.7721 61.8104 41.493 61.3064C41.2217 60.8025 41.086 60.221 41.086 59.562C41.086 58.8953 41.2217 58.3099 41.493 57.806C41.7644 57.302 42.1443 56.9144 42.6327 56.643C43.1211 56.3717 43.6832 56.236 44.319 56.236C44.9315 56.236 45.478 56.3678 45.9587 56.6314C46.4472 56.895 46.8232 57.271 47.0868 57.7595C47.3581 58.2401 47.4938 58.7945 47.4938 59.4225ZM45.8075 58.9573C45.7998 58.5386 45.6486 58.2053 45.354 57.9572C45.0594 57.7013 44.6989 57.5734 44.2724 57.5734C43.8693 57.5734 43.5282 57.6974 43.2491 57.9455C42.9777 58.1859 42.811 58.5231 42.749 58.9573H45.8075ZM56.9307 54.666V55.9802H53.5466V58.0618H56.1399V59.3527H53.5466V62.7834H51.9184V54.666H56.9307ZM64.307 59.4225C64.307 59.6551 64.2915 59.8644 64.2605 60.0505H59.5505C59.5893 60.5156 59.7521 60.88 60.039 61.1436C60.3258 61.4072 60.6786 61.539 61.0973 61.539C61.702 61.539 62.1323 61.2793 62.3881 60.7599H64.1442C63.9581 61.3801 63.6015 61.8918 63.0743 62.2949C62.5471 62.6904 61.8997 62.8881 61.1321 62.8881C60.5119 62.8881 59.9537 62.7524 59.4575 62.481C58.9691 62.2019 58.5853 61.8104 58.3062 61.3064C58.0348 60.8025 57.8992 60.221 57.8992 59.562C57.8992 58.8953 58.0348 58.3099 58.3062 57.806C58.5775 57.302 58.9574 56.9144 59.4459 56.643C59.9343 56.3717 60.4964 56.236 61.1321 56.236C61.7446 56.236 62.2912 56.3678 62.7719 56.6314C63.2603 56.895 63.6364 57.271 63.9 57.7595C64.1713 58.2401 64.307 58.7945 64.307 59.4225ZM62.6207 58.9573C62.613 58.5386 62.4618 58.2053 62.1672 57.9572C61.8726 57.7013 61.512 57.5734 61.0856 57.5734C60.6825 57.5734 60.3413 57.6974 60.0622 57.9455C59.7909 58.1859 59.6242 58.5231 59.5622 58.9573H62.6207ZM71.7171 59.4225C71.7171 59.6551 71.7016 59.8644 71.6706 60.0505H66.9607C66.9994 60.5156 67.1623 60.88 67.4491 61.1436C67.736 61.4072 68.0887 61.539 68.5074 61.539C69.1121 61.539 69.5424 61.2793 69.7983 60.7599H71.5543C71.3682 61.3801 71.0116 61.8918 70.4844 62.2949C69.9572 62.6904 69.3098 62.8881 68.5423 62.8881C67.922 62.8881 67.3638 62.7524 66.8676 62.481C66.3792 62.2019 65.9954 61.8104 65.7163 61.3064C65.445 60.8025 65.3093 60.221 65.3093 59.562C65.3093 58.8953 65.445 58.3099 65.7163 57.806C65.9877 57.302 66.3676 56.9144 66.856 56.643C67.3444 56.3717 67.9065 56.236 68.5423 56.236C69.1548 56.236 69.7013 56.3678 70.182 56.6314C70.6705 56.895 71.0465 57.271 71.3101 57.7595C71.5814 58.2401 71.7171 58.7945 71.7171 59.4225ZM70.0308 58.9573C70.0231 58.5386 69.8719 58.2053 69.5773 57.9572C69.2827 57.7013 68.9222 57.5734 68.4958 57.5734C68.0926 57.5734 67.7515 57.6974 67.4724 57.9455C67.201 58.1859 67.0343 58.5231 66.9723 58.9573H70.0308ZM72.7194 59.5388C72.7194 58.8875 72.8474 58.3099 73.1032 57.806C73.3668 57.302 73.7234 56.9144 74.1731 56.643C74.6228 56.3717 75.1229 56.236 75.6733 56.236C76.092 56.236 76.4913 56.329 76.8711 56.5151C77.251 56.6934 77.5534 56.9338 77.7782 57.2361V54.1776H79.4296V62.7834H77.7782V61.8298C77.5767 62.1476 77.2937 62.4035 76.9293 62.5973C76.5649 62.7911 76.1424 62.8881 75.6617 62.8881C75.119 62.8881 74.6228 62.7485 74.1731 62.4694C73.7234 62.1903 73.3668 61.7988 73.1032 61.2948C72.8474 60.7831 72.7194 60.1978 72.7194 59.5388ZM77.7899 59.562C77.7899 59.1666 77.7123 58.8294 77.5573 58.5503C77.4022 58.2634 77.1929 58.0463 76.9293 57.899C76.6657 57.744 76.3827 57.6664 76.0803 57.6664C75.778 57.6664 75.4989 57.7401 75.243 57.8874C74.9872 58.0347 74.7778 58.2518 74.615 58.5386C74.46 58.8177 74.3824 59.1511 74.3824 59.5388C74.3824 59.9264 74.46 60.2675 74.615 60.5622C74.7778 60.849 74.9872 61.07 75.243 61.225C75.5066 61.3801 75.7857 61.4576 76.0803 61.4576C76.3827 61.4576 76.6657 61.384 76.9293 61.2367C77.1929 61.0816 77.4022 60.8645 77.5573 60.5854C77.7123 60.2986 77.7899 59.9574 77.7899 59.562ZM82.8805 57.2827C83.0898 56.9725 83.3767 56.7206 83.7411 56.5267C84.1132 56.3329 84.5357 56.236 85.0087 56.236C85.5591 56.236 86.0553 56.3717 86.4972 56.643C86.9469 56.9144 87.2997 57.302 87.5555 57.806C87.8191 58.3022 87.9509 58.8798 87.9509 59.5388C87.9509 60.1978 87.8191 60.7831 87.5555 61.2948C87.2997 61.7988 86.9469 62.1903 86.4972 62.4694C86.0553 62.7485 85.5591 62.8881 85.0087 62.8881C84.528 62.8881 84.1054 62.795 83.7411 62.6089C83.3844 62.4151 83.0976 62.167 82.8805 61.8647V62.7834H81.2524V54.1776H82.8805V57.2827ZM86.2879 59.5388C86.2879 59.1511 86.2065 58.8177 86.0437 58.5386C85.8886 58.2518 85.6793 58.0347 85.4157 57.8874C85.1598 57.7401 84.8807 57.6664 84.5784 57.6664C84.2838 57.6664 84.0047 57.744 83.7411 57.899C83.4852 58.0463 83.2759 58.2634 83.1131 58.5503C82.958 58.8371 82.8805 59.1744 82.8805 59.562C82.8805 59.9497 82.958 60.2869 83.1131 60.5738C83.2759 60.8607 83.4852 61.0816 83.7411 61.2367C84.0047 61.384 84.2838 61.4576 84.5784 61.4576C84.8807 61.4576 85.1598 61.3801 85.4157 61.225C85.6793 61.07 85.8886 60.849 86.0437 60.5622C86.2065 60.2753 86.2879 59.9342 86.2879 59.5388ZM88.948 59.5388C88.948 58.8875 89.0759 58.3099 89.3317 57.806C89.5953 57.302 89.9481 56.9144 90.39 56.643C90.8397 56.3717 91.3398 56.236 91.8902 56.236C92.3709 56.236 92.7896 56.3329 93.1462 56.5267C93.5106 56.7206 93.8013 56.9648 94.0184 57.2594V56.3407H95.6582V62.7834H94.0184V61.8414C93.8091 62.1438 93.5183 62.3957 93.1462 62.5973C92.7818 62.7911 92.3593 62.8881 91.8786 62.8881C91.3359 62.8881 90.8397 62.7485 90.39 62.4694C89.9481 62.1903 89.5953 61.7988 89.3317 61.2948C89.0759 60.7831 88.948 60.1978 88.948 59.5388ZM94.0184 59.562C94.0184 59.1666 93.9409 58.8294 93.7858 58.5503C93.6308 58.2634 93.4214 58.0463 93.1578 57.899C92.8942 57.744 92.6112 57.6664 92.3089 57.6664C92.0065 57.6664 91.7274 57.7401 91.4716 57.8874C91.2157 58.0347 91.0064 58.2518 90.8436 58.5386C90.6885 58.8177 90.611 59.1511 90.611 59.5388C90.611 59.9264 90.6885 60.2675 90.8436 60.5622C91.0064 60.849 91.2157 61.07 91.4716 61.225C91.7352 61.3801 92.0143 61.4576 92.3089 61.4576C92.6112 61.4576 92.8942 61.384 93.1578 61.2367C93.4214 61.0816 93.6308 60.8645 93.7858 60.5854C93.9409 60.2986 94.0184 59.9574 94.0184 59.562ZM97.0622 59.562C97.0622 58.8953 97.1979 58.3138 97.4693 57.8176C97.7406 57.3137 98.1166 56.926 98.5973 56.6547C99.078 56.3756 99.6285 56.236 100.249 56.236C101.047 56.236 101.706 56.4376 102.226 56.8407C102.753 57.2361 103.106 57.7944 103.284 58.5154H101.528C101.435 58.2363 101.276 58.0192 101.051 57.8641C100.834 57.7013 100.563 57.6199 100.237 57.6199C99.7719 57.6199 99.4036 57.7905 99.1323 58.1316C98.8609 58.465 98.7252 58.9418 98.7252 59.562C98.7252 60.1745 98.8609 60.6513 99.1323 60.9925C99.4036 61.3258 99.7719 61.4925 100.237 61.4925C100.896 61.4925 101.326 61.1979 101.528 60.6087H103.284C103.106 61.3064 102.753 61.8608 102.226 62.2717C101.698 62.6826 101.039 62.8881 100.249 62.8881C99.6285 62.8881 99.078 62.7524 98.5973 62.481C98.1166 62.2019 97.7406 61.8143 97.4693 61.3181C97.1979 60.8141 97.0622 60.2288 97.0622 59.562ZM108.524 62.7834L106.337 60.0388V62.7834H104.709V54.1776H106.337V59.0736L108.501 56.3407H110.617L107.779 59.5737L110.64 62.7834H108.524ZM19.5739 71.666V72.9802H16.1897V75.0618H18.7831V76.3527H16.1897V79.7834H14.5616V71.666H19.5739ZM22.5891 74.3408C22.7984 73.9997 23.0698 73.7322 23.4031 73.5384C23.7443 73.3445 24.1319 73.2476 24.5661 73.2476V74.9572H24.1358C23.6241 74.9572 23.2365 75.0773 22.9729 75.3177C22.717 75.558 22.5891 75.9767 22.5891 76.5737V79.7834H20.961V73.3407H22.5891V74.3408ZM28.7561 79.8881C28.1359 79.8881 27.5777 79.7524 27.0815 79.481C26.5853 79.2019 26.1938 78.8104 25.9069 78.3064C25.6278 77.8025 25.4883 77.221 25.4883 76.562C25.4883 75.903 25.6317 75.3216 25.9186 74.8176C26.2132 74.3137 26.6124 73.926 27.1164 73.6547C27.6203 73.3756 28.1824 73.236 28.8027 73.236C29.4229 73.236 29.985 73.3756 30.4889 73.6547C30.9929 73.926 31.3883 74.3137 31.6751 74.8176C31.9697 75.3216 32.117 75.903 32.117 76.562C32.117 77.221 31.9659 77.8025 31.6635 78.3064C31.3689 78.8104 30.9657 79.2019 30.454 79.481C29.9501 79.7524 29.3841 79.8881 28.7561 79.8881ZM28.7561 78.4693C29.0508 78.4693 29.326 78.3995 29.5818 78.2599C29.8454 78.1126 30.0548 77.8955 30.2098 77.6087C30.3649 77.3218 30.4424 76.9729 30.4424 76.562C30.4424 75.9495 30.2796 75.4805 29.954 75.1549C29.6361 74.8215 29.2446 74.6548 28.7794 74.6548C28.3142 74.6548 27.9227 74.8215 27.6048 75.1549C27.2947 75.4805 27.1396 75.9495 27.1396 76.562C27.1396 77.1745 27.2908 77.6474 27.5932 77.9808C27.9033 78.3064 28.291 78.4693 28.7561 78.4693ZM41.545 73.2476C42.3358 73.2476 42.9715 73.4919 43.4522 73.9803C43.9406 74.461 44.1849 75.1355 44.1849 76.0038V79.7834H42.5567V76.2248C42.5567 75.7208 42.4288 75.3371 42.173 75.0735C41.9171 74.8021 41.5682 74.6664 41.1263 74.6664C40.6844 74.6664 40.3316 74.8021 40.068 75.0735C39.8122 75.3371 39.6843 75.7208 39.6843 76.2248V79.7834H38.0561V76.2248C38.0561 75.7208 37.9282 75.3371 37.6724 75.0735C37.4165 74.8021 37.0676 74.6664 36.6257 74.6664C36.1761 74.6664 35.8194 74.8021 35.5558 75.0735C35.3 75.3371 35.172 75.7208 35.172 76.2248V79.7834H33.5439V73.3407H35.172V74.1198C35.3814 73.8485 35.6489 73.6353 35.9745 73.4802C36.3079 73.3252 36.6722 73.2476 37.0676 73.2476C37.5716 73.2476 38.0213 73.3562 38.4167 73.5733C38.8121 73.7826 39.1183 74.085 39.3354 74.4804C39.5447 74.1082 39.8471 73.8097 40.2425 73.5849C40.6456 73.3601 41.0798 73.2476 41.545 73.2476ZM54.8855 74.178C54.8855 74.6122 54.7808 75.0192 54.5715 75.3991C54.3699 75.779 54.0482 76.0852 53.6063 76.3178C53.1721 76.5504 52.6216 76.6667 51.9549 76.6667H50.5942V79.7834H48.9661V71.666H51.9549C52.5829 71.666 53.1178 71.7746 53.5597 71.9917C54.0017 72.2087 54.3312 72.5072 54.5483 72.8871C54.7731 73.267 54.8855 73.6973 54.8855 74.178ZM51.8851 75.3526C52.3348 75.3526 52.6682 75.2518 52.8852 75.0502C53.1023 74.8409 53.2109 74.5501 53.2109 74.178C53.2109 73.3872 52.7689 72.9918 51.8851 72.9918H50.5942V75.3526H51.8851ZM57.9022 74.3408C58.1115 73.9997 58.3828 73.7322 58.7162 73.5384C59.0574 73.3445 59.445 73.2476 59.8792 73.2476V74.9572H59.4489C58.9372 74.9572 58.5495 75.0773 58.2859 75.3177C58.0301 75.558 57.9022 75.9767 57.9022 76.5737V79.7834H56.274V73.3407H57.9022V74.3408ZM64.0692 79.8881C63.449 79.8881 62.8908 79.7524 62.3946 79.481C61.8984 79.2019 61.5069 78.8104 61.22 78.3064C60.9409 77.8025 60.8013 77.221 60.8013 76.562C60.8013 75.903 60.9448 75.3216 61.2316 74.8176C61.5262 74.3137 61.9255 73.926 62.4295 73.6547C62.9334 73.3756 63.4955 73.236 64.1157 73.236C64.736 73.236 65.2981 73.3756 65.802 73.6547C66.306 73.926 66.7014 74.3137 66.9882 74.8176C67.2828 75.3216 67.4301 75.903 67.4301 76.562C67.4301 77.221 67.2789 77.8025 66.9766 78.3064C66.682 78.8104 66.2788 79.2019 65.7671 79.481C65.2632 79.7524 64.6972 79.8881 64.0692 79.8881ZM64.0692 78.4693C64.3638 78.4693 64.6391 78.3995 64.8949 78.2599C65.1585 78.1126 65.3678 77.8955 65.5229 77.6087C65.678 77.3218 65.7555 76.9729 65.7555 76.562C65.7555 75.9495 65.5927 75.4805 65.2671 75.1549C64.9492 74.8215 64.5577 74.6548 64.0925 74.6548C63.6273 74.6548 63.2358 74.8215 62.9179 75.1549C62.6078 75.4805 62.4527 75.9495 62.4527 76.562C62.4527 77.1745 62.6039 77.6474 62.9063 77.9808C63.2164 78.3064 63.604 78.4693 64.0692 78.4693ZM69.6827 72.5731C69.3881 72.5731 69.1439 72.484 68.95 72.3057C68.764 72.1196 68.6709 71.8909 68.6709 71.6195C68.6709 71.3482 68.764 71.1233 68.95 70.945C69.1439 70.7589 69.3881 70.6659 69.6827 70.6659C69.9696 70.6659 70.206 70.7589 70.3921 70.945C70.5782 71.1233 70.6712 71.3482 70.6712 71.6195C70.6712 71.8909 70.5782 72.1196 70.3921 72.3057C70.206 72.484 69.9696 72.5731 69.6827 72.5731ZM70.4851 80.8417C70.4851 81.5549 70.3068 82.0666 69.9502 82.3768C69.6013 82.6946 69.0974 82.8536 68.4384 82.8536H67.7173V81.4697H68.1825C68.4306 81.4697 68.605 81.4193 68.7058 81.3185C68.8066 81.2254 68.857 81.0704 68.857 80.8533V73.3407H70.4851V80.8417ZM78.3155 76.4225C78.3155 76.6551 78.3 76.8644 78.269 77.0505H73.559C73.5978 77.5156 73.7606 77.88 74.0475 78.1436C74.3343 78.4072 74.6871 78.539 75.1057 78.539C75.7105 78.539 76.1408 78.2793 76.3966 77.7599H78.1527C77.9666 78.3801 77.61 78.8918 77.0828 79.2949C76.5556 79.6904 75.9082 79.8881 75.1406 79.8881C74.5204 79.8881 73.9622 79.7524 73.466 79.481C72.9776 79.2019 72.5938 78.8104 72.3147 78.3064C72.0433 77.8025 71.9077 77.221 71.9077 76.562C71.9077 75.8953 72.0433 75.3099 72.3147 74.806C72.586 74.302 72.9659 73.9144 73.4544 73.643C73.9428 73.3717 74.5049 73.236 75.1406 73.236C75.7531 73.236 76.2997 73.3678 76.7804 73.6314C77.2688 73.895 77.6448 74.271 77.9084 74.7595C78.1798 75.2401 78.3155 75.7945 78.3155 76.4225ZM76.6292 75.9573C76.6215 75.5386 76.4703 75.2053 76.1757 74.9572C75.881 74.7013 75.5205 74.5734 75.0941 74.5734C74.691 74.5734 74.3498 74.6974 74.0707 74.9455C73.7994 75.1859 73.6327 75.5231 73.5707 75.9573H76.6292ZM79.3178 76.562C79.3178 75.8953 79.4535 75.3138 79.7248 74.8176C79.9962 74.3137 80.3722 73.926 80.8529 73.6547C81.3336 73.3756 81.884 73.236 82.5043 73.236C83.3028 73.236 83.9618 73.4376 84.4813 73.8407C85.0085 74.2361 85.3612 74.7944 85.5395 75.5154H83.7835C83.6905 75.2363 83.5315 75.0192 83.3067 74.8641C83.0896 74.7013 82.8183 74.6199 82.4926 74.6199C82.0275 74.6199 81.6592 74.7905 81.3878 75.1316C81.1165 75.465 80.9808 75.9418 80.9808 76.562C80.9808 77.1745 81.1165 77.6513 81.3878 77.9925C81.6592 78.3258 82.0275 78.4925 82.4926 78.4925C83.1516 78.4925 83.5819 78.1979 83.7835 77.6087H85.5395C85.3612 78.3064 85.0085 78.8608 84.4813 79.2717C83.9541 79.6826 83.2951 79.8881 82.5043 79.8881C81.884 79.8881 81.3336 79.7524 80.8529 79.481C80.3722 79.2019 79.9962 78.8143 79.7248 78.3181C79.4535 77.8141 79.3178 77.2288 79.3178 76.562ZM88.8605 74.6781V77.7948C88.8605 78.0118 88.9109 78.1708 89.0117 78.2716C89.1202 78.3646 89.2985 78.4111 89.5466 78.4111H90.3025V79.7834H89.2791C87.9069 79.7834 87.2207 79.1166 87.2207 77.7831V74.6781H86.4532V73.3407H87.2207V71.7474H88.8605V73.3407H90.3025V74.6781H88.8605ZM94.1716 79.8881C93.6444 79.8881 93.1715 79.795 92.7528 79.6089C92.3341 79.4151 92.0008 79.1554 91.7527 78.8298C91.5123 78.5041 91.3805 78.1436 91.3573 77.7482H92.997C93.028 77.9963 93.1482 78.2018 93.3575 78.3646C93.5746 78.5274 93.8421 78.6088 94.16 78.6088C94.4701 78.6088 94.7104 78.5468 94.881 78.4227C95.0593 78.2987 95.1485 78.1398 95.1485 77.9459C95.1485 77.7366 95.0399 77.5815 94.8228 77.4808C94.6135 77.3722 94.2763 77.2559 93.8111 77.1319C93.3304 77.0156 92.935 76.8954 92.6249 76.7714C92.3225 76.6473 92.0589 76.4574 91.8341 76.2015C91.617 75.9457 91.5084 75.6007 91.5084 75.1665C91.5084 74.8099 91.6092 74.4842 91.8108 74.1896C92.0201 73.895 92.3148 73.6624 92.6947 73.4919C93.0823 73.3213 93.5358 73.236 94.0553 73.236C94.8228 73.236 95.4353 73.4298 95.8927 73.8175C96.3502 74.1974 96.6021 74.7129 96.6487 75.3642H95.0903C95.0671 75.1083 94.9585 74.9068 94.7647 74.7595C94.5786 74.6044 94.3267 74.5269 94.0088 74.5269C93.7142 74.5269 93.4855 74.5811 93.3226 74.6897C93.1676 74.7982 93.0901 74.9494 93.0901 75.1432C93.0901 75.3603 93.1986 75.527 93.4157 75.6433C93.6328 75.7518 93.97 75.8643 94.4274 75.9806C94.8926 76.0969 95.2764 76.217 95.5788 76.3411C95.8811 76.4651 96.1408 76.6589 96.3579 76.9225C96.5828 77.1784 96.6991 77.5195 96.7068 77.9459C96.7068 78.3181 96.6021 78.6515 96.3928 78.9461C96.1912 79.2407 95.8966 79.4733 95.509 79.6438C95.1291 79.8066 94.6833 79.8881 94.1716 79.8881Z" fill="#CAE9FF"/>
</svg>
