<svg width="68" height="84" viewBox="0 0 68 84" fill="none" xmlns="http://www.w3.org/2000/svg">
<path d="M24.9873 31.3299V27.7121L35.7418 12.3204H41.1026V27.3175H43.9968V31.3299H41.1026V36H36.4982V31.3299H24.9873ZM36.7942 17.2537L30.0521 27.3175H36.7942V17.2537Z" fill="#CAE9FF"/>
<path d="M18.6561 56.7271C18.6561 57.1612 18.5514 57.5683 18.3421 57.9482C18.1405 58.3281 17.8188 58.6343 17.3768 58.8669C16.9427 59.0995 16.3922 59.2158 15.7255 59.2158H14.3648V62.3325H12.7367V54.2151H15.7255C16.3535 54.2151 16.8884 54.3236 17.3303 54.5407C17.7722 54.7578 18.1017 55.0563 18.3188 55.4362C18.5437 55.8161 18.6561 56.2464 18.6561 56.7271ZM15.6557 57.9016C16.1054 57.9016 16.4387 57.8009 16.6558 57.5993C16.8729 57.3899 16.9814 57.0992 16.9814 56.7271C16.9814 55.9363 16.5395 55.5409 15.6557 55.5409H14.3648V57.9016H15.6557ZM26.0338 58.9715C26.0338 59.2041 26.0183 59.4135 25.9873 59.5995H21.2773C21.3161 60.0647 21.4789 60.4291 21.7658 60.6927C22.0526 60.9563 22.4054 61.0881 22.8241 61.0881C23.4288 61.0881 23.8591 60.8284 24.1149 60.3089H25.871C25.6849 60.9292 25.3283 61.4409 24.8011 61.844C24.2739 62.2394 23.6265 62.4371 22.8589 62.4371C22.2387 62.4371 21.6805 62.3014 21.1843 62.0301C20.6959 61.751 20.3121 61.3595 20.033 60.8555C19.7616 60.3516 19.626 59.7701 19.626 59.1111C19.626 58.4443 19.7616 57.859 20.033 57.3551C20.3043 56.8511 20.6842 56.4635 21.1727 56.1921C21.6611 55.9208 22.2232 55.7851 22.8589 55.7851C23.4714 55.7851 24.018 55.9169 24.4987 56.1805C24.9871 56.4441 25.3632 56.8201 25.6268 57.3085C25.8981 57.7892 26.0338 58.3436 26.0338 58.9715ZM24.3475 58.5064C24.3398 58.0877 24.1886 57.7543 23.894 57.5062C23.5994 57.2504 23.2388 57.1225 22.8124 57.1225C22.4093 57.1225 22.0681 57.2465 21.789 57.4946C21.5177 57.735 21.351 58.0722 21.289 58.5064H24.3475ZM30.3156 62.4371C29.6954 62.4371 29.1371 62.3014 28.641 62.0301C28.1448 61.751 27.7532 61.3595 27.4664 60.8555C27.1873 60.3516 27.0477 59.7701 27.0477 59.1111C27.0477 58.4521 27.1912 57.8706 27.478 57.3667C27.7726 56.8627 28.1719 56.4751 28.6758 56.2037C29.1798 55.9246 29.7419 55.7851 30.3621 55.7851C30.9824 55.7851 31.5444 55.9246 32.0484 56.2037C32.5523 56.4751 32.9477 56.8627 33.2346 57.3667C33.5292 57.8706 33.6765 58.4521 33.6765 59.1111C33.6765 59.7701 33.5253 60.3516 33.223 60.8555C32.9283 61.3595 32.5252 61.751 32.0135 62.0301C31.5096 62.3014 30.9436 62.4371 30.3156 62.4371ZM30.3156 61.0183C30.6102 61.0183 30.8854 60.9486 31.1413 60.809C31.4049 60.6617 31.6142 60.4446 31.7693 60.1578C31.9243 59.8709 32.0019 59.522 32.0019 59.1111C32.0019 58.4986 31.8391 58.0296 31.5134 57.7039C31.1956 57.3706 30.804 57.2039 30.3389 57.2039C29.8737 57.2039 29.4822 57.3706 29.1643 57.7039C28.8542 58.0296 28.6991 58.4986 28.6991 59.1111C28.6991 59.7236 28.8503 60.1965 29.1527 60.5299C29.4628 60.8555 29.8504 61.0183 30.3156 61.0183ZM36.7315 56.8201C36.9408 56.5255 37.2277 56.2813 37.5921 56.0874C37.9642 55.8859 38.3868 55.7851 38.8597 55.7851C39.4102 55.7851 39.9063 55.9208 40.3483 56.1921C40.7979 56.4635 41.1507 56.8511 41.4065 57.3551C41.6701 57.8512 41.8019 58.4288 41.8019 59.0878C41.8019 59.7468 41.6701 60.3322 41.4065 60.8439C41.1507 61.3478 40.7979 61.7394 40.3483 62.0185C39.9063 62.2976 39.4102 62.4371 38.8597 62.4371C38.3868 62.4371 37.9681 62.3402 37.6037 62.1464C37.2471 61.9526 36.9563 61.7083 36.7315 61.4137V65.4026H35.1034V55.8897H36.7315V56.8201ZM40.1389 59.0878C40.1389 58.7002 40.0575 58.3668 39.8947 58.0877C39.7397 57.8009 39.5303 57.5838 39.2667 57.4365C39.0109 57.2892 38.7318 57.2155 38.4294 57.2155C38.1348 57.2155 37.8557 57.293 37.5921 57.4481C37.3362 57.5954 37.1269 57.8125 36.9641 58.0993C36.809 58.3862 36.7315 58.7235 36.7315 59.1111C36.7315 59.4988 36.809 59.836 36.9641 60.1229C37.1269 60.4097 37.3362 60.6307 37.5921 60.7857C37.8557 60.933 38.1348 61.0067 38.4294 61.0067C38.7318 61.0067 39.0109 60.9292 39.2667 60.7741C39.5303 60.6191 39.7397 60.3981 39.8947 60.1112C40.0575 59.8244 40.1389 59.4832 40.1389 59.0878ZM44.8458 53.7267V62.3325H43.2177V53.7267H44.8458ZM52.6761 58.9715C52.6761 59.2041 52.6606 59.4135 52.6296 59.5995H47.9197C47.9584 60.0647 48.1213 60.4291 48.4081 60.6927C48.695 60.9563 49.0477 61.0881 49.4664 61.0881C50.0711 61.0881 50.5014 60.8284 50.7573 60.3089H52.5133C52.3272 60.9292 51.9706 61.4409 51.4434 61.844C50.9162 62.2394 50.2688 62.4371 49.5013 62.4371C48.881 62.4371 48.3228 62.3014 47.8266 62.0301C47.3382 61.751 46.9544 61.3595 46.6753 60.8555C46.404 60.3516 46.2683 59.7701 46.2683 59.1111C46.2683 58.4443 46.404 57.859 46.6753 57.3551C46.9467 56.8511 47.3266 56.4635 47.815 56.1921C48.3034 55.9208 48.8655 55.7851 49.5013 55.7851C50.1138 55.7851 50.6603 55.9169 51.141 56.1805C51.6295 56.4441 52.0055 56.8201 52.2691 57.3085C52.5404 57.7892 52.6761 58.3436 52.6761 58.9715ZM50.9898 58.5064C50.9821 58.0877 50.8309 57.7543 50.5363 57.5062C50.2417 57.2504 49.8812 57.1225 49.4548 57.1225C49.0516 57.1225 48.7105 57.2465 48.4314 57.4946C48.16 57.735 47.9933 58.0722 47.9313 58.5064H50.9898ZM6.77342 71.2151V72.5292H4.61035V79.3325H2.98223V72.5292H0.819148V71.2151H6.77342ZM14.1831 75.9715C14.1831 76.2041 14.1676 76.4135 14.1366 76.5995H9.42666C9.46543 77.0647 9.62824 77.4291 9.9151 77.6927C10.202 77.9563 10.5547 78.0881 10.9734 78.0881C11.5781 78.0881 12.0084 77.8284 12.2642 77.3089H14.0203C13.8342 77.9292 13.4776 78.4409 12.9504 78.844C12.4232 79.2394 11.7758 79.4371 11.0083 79.4371C10.388 79.4371 9.82982 79.3014 9.33363 79.0301C8.84519 78.751 8.46142 78.3595 8.18231 77.8555C7.91096 77.3516 7.77528 76.7701 7.77528 76.1111C7.77528 75.4443 7.91096 74.859 8.18231 74.3551C8.45367 73.8511 8.83356 73.4635 9.322 73.1921C9.81044 72.9208 10.3725 72.7851 11.0083 72.7851C11.6208 72.7851 12.1673 72.9169 12.648 73.1805C13.1365 73.4441 13.5125 73.8201 13.7761 74.3085C14.0474 74.7892 14.1831 75.3436 14.1831 75.9715ZM12.4968 75.5064C12.4891 75.0877 12.3379 74.7543 12.0433 74.5062C11.7487 74.2504 11.3882 74.1225 10.9618 74.1225C10.5586 74.1225 10.2175 74.2465 9.93836 74.4946C9.66701 74.735 9.50032 75.0722 9.43829 75.5064H12.4968ZM15.1854 76.0878C15.1854 75.4366 15.3133 74.859 15.5692 74.3551C15.8328 73.8511 16.1856 73.4635 16.6275 73.1921C17.0771 72.9208 17.5772 72.7851 18.1277 72.7851C18.6084 72.7851 19.027 72.882 19.3836 73.0758C19.748 73.2696 20.0388 73.5139 20.2559 73.8085V72.8897H21.8956V79.3325H20.2559V78.3905C20.0465 78.6928 19.7558 78.9448 19.3836 79.1464C19.0193 79.3402 18.5967 79.4371 18.116 79.4371C17.5733 79.4371 17.0771 79.2976 16.6275 79.0185C16.1856 78.7394 15.8328 78.3478 15.5692 77.8439C15.3133 77.3322 15.1854 76.7468 15.1854 76.0878ZM20.2559 76.1111C20.2559 75.7157 20.1783 75.3784 20.0233 75.0993C19.8682 74.8125 19.6589 74.5954 19.3953 74.4481C19.1317 74.293 18.8487 74.2155 18.5463 74.2155C18.244 74.2155 17.9649 74.2892 17.709 74.4365C17.4532 74.5838 17.2438 74.8009 17.081 75.0877C16.926 75.3668 16.8484 75.7002 16.8484 76.0878C16.8484 76.4755 16.926 76.8166 17.081 77.1112C17.2438 77.3981 17.4532 77.6191 17.709 77.7741C17.9726 77.9292 18.2517 78.0067 18.5463 78.0067C18.8487 78.0067 19.1317 77.933 19.3953 77.7857C19.6589 77.6307 19.8682 77.4136 20.0233 77.1345C20.1783 76.8476 20.2559 76.5065 20.2559 76.1111ZM31.7194 72.7967C32.5102 72.7967 33.1459 73.0409 33.6266 73.5294C34.1151 74.01 34.3593 74.6846 34.3593 75.5529V79.3325H32.7312V75.7738C32.7312 75.2699 32.6032 74.8861 32.3474 74.6225C32.0915 74.3512 31.7427 74.2155 31.3007 74.2155C30.8588 74.2155 30.5061 74.3512 30.2425 74.6225C29.9866 74.8861 29.8587 75.2699 29.8587 75.7738V79.3325H28.2306V75.7738C28.2306 75.2699 28.1026 74.8861 27.8468 74.6225C27.5909 74.3512 27.2421 74.2155 26.8001 74.2155C26.3505 74.2155 25.9938 74.3512 25.7302 74.6225C25.4744 74.8861 25.3465 75.2699 25.3465 75.7738V79.3325H23.7183V72.8897H25.3465V73.6689C25.5558 73.3976 25.8233 73.1844 26.1489 73.0293C26.4823 72.8742 26.8467 72.7967 27.2421 72.7967C27.746 72.7967 28.1957 72.9053 28.5911 73.1223C28.9865 73.3317 29.2927 73.634 29.5098 74.0294C29.7191 73.6573 30.0215 73.3588 30.4169 73.134C30.8201 72.9091 31.2542 72.7967 31.7194 72.7967ZM40.7687 78.0416H43.4434V79.3325H39.1405V71.2151H40.7687V78.0416ZM47.5717 79.4371C46.9515 79.4371 46.3932 79.3014 45.8971 79.0301C45.4009 78.751 45.0093 78.3595 44.7225 77.8555C44.4434 77.3516 44.3038 76.7701 44.3038 76.1111C44.3038 75.4521 44.4473 74.8706 44.7341 74.3667C45.0287 73.8627 45.428 73.4751 45.9319 73.2037C46.4359 72.9246 46.998 72.7851 47.6182 72.7851C48.2385 72.7851 48.8005 72.9246 49.3045 73.2037C49.8084 73.4751 50.2038 73.8627 50.4907 74.3667C50.7853 74.8706 50.9326 75.4521 50.9326 76.1111C50.9326 76.7701 50.7814 77.3516 50.4791 77.8555C50.1844 78.3595 49.7813 78.751 49.2696 79.0301C48.7657 79.3014 48.1997 79.4371 47.5717 79.4371ZM47.5717 78.0183C47.8663 78.0183 48.1415 77.9486 48.3974 77.809C48.661 77.6617 48.8703 77.4446 49.0254 77.1578C49.1804 76.8709 49.258 76.522 49.258 76.1111C49.258 75.4986 49.0952 75.0296 48.7695 74.7039C48.4517 74.3706 48.0601 74.2039 47.595 74.2039C47.1298 74.2039 46.7383 74.3706 46.4204 74.7039C46.1103 75.0296 45.9552 75.4986 45.9552 76.1111C45.9552 76.7236 46.1064 77.1965 46.4088 77.5299C46.7189 77.8555 47.1065 78.0183 47.5717 78.0183ZM51.9408 76.0878C51.9408 75.4366 52.0688 74.859 52.3246 74.3551C52.5882 73.8511 52.941 73.4635 53.3829 73.1921C53.8326 72.9208 54.3326 72.7851 54.8831 72.7851C55.3638 72.7851 55.7824 72.882 56.1391 73.0758C56.5034 73.2696 56.7942 73.5139 57.0113 73.8085V72.8897H58.651V79.3325H57.0113V78.3905C56.8019 78.6928 56.5112 78.9448 56.1391 79.1464C55.7747 79.3402 55.3521 79.4371 54.8714 79.4371C54.3287 79.4371 53.8326 79.2976 53.3829 79.0185C52.941 78.7394 52.5882 78.3478 52.3246 77.8439C52.0688 77.3322 51.9408 76.7468 51.9408 76.0878ZM57.0113 76.1111C57.0113 75.7157 56.9337 75.3784 56.7787 75.0993C56.6236 74.8125 56.4143 74.5954 56.1507 74.4481C55.8871 74.293 55.6041 74.2155 55.3017 74.2155C54.9994 74.2155 54.7203 74.2892 54.4644 74.4365C54.2086 74.5838 53.9992 74.8009 53.8364 75.0877C53.6814 75.3668 53.6038 75.7002 53.6038 76.0878C53.6038 76.4755 53.6814 76.8166 53.8364 77.1112C53.9992 77.3981 54.2086 77.6191 54.4644 77.7741C54.728 77.9292 55.0071 78.0067 55.3017 78.0067C55.6041 78.0067 55.8871 77.933 56.1507 77.7857C56.4143 77.6307 56.6236 77.4136 56.7787 77.1345C56.9337 76.8476 57.0113 76.5065 57.0113 76.1111ZM60.0551 76.0878C60.0551 75.4366 60.183 74.859 60.4389 74.3551C60.7025 73.8511 61.0591 73.4635 61.5088 73.1921C61.9584 72.9208 62.4585 72.7851 63.009 72.7851C63.4276 72.7851 63.8269 72.8781 64.2068 73.0642C64.5867 73.2425 64.8891 73.4828 65.1139 73.7852V70.7267H66.7653V79.3325H65.1139V78.3788C64.9123 78.6967 64.6293 78.9526 64.2649 79.1464C63.9006 79.3402 63.478 79.4371 62.9973 79.4371C62.4546 79.4371 61.9584 79.2976 61.5088 79.0185C61.0591 78.7394 60.7025 78.3478 60.4389 77.8439C60.183 77.3322 60.0551 76.7468 60.0551 76.0878ZM65.1255 76.1111C65.1255 75.7157 65.048 75.3784 64.8929 75.0993C64.7379 74.8125 64.5285 74.5954 64.2649 74.4481C64.0013 74.293 63.7184 74.2155 63.416 74.2155C63.1136 74.2155 62.8345 74.2892 62.5787 74.4365C62.3228 74.5838 62.1135 74.8009 61.9507 75.0877C61.7956 75.3668 61.7181 75.7002 61.7181 76.0878C61.7181 76.4755 61.7956 76.8166 61.9507 77.1112C62.1135 77.3981 62.3228 77.6191 62.5787 77.7741C62.8423 77.9292 63.1214 78.0067 63.416 78.0067C63.7184 78.0067 64.0013 77.933 64.2649 77.7857C64.5285 77.6307 64.7379 77.4136 64.8929 77.1345C65.048 76.8476 65.1255 76.5065 65.1255 76.1111Z" fill="#CAE9FF"/>
</svg>
