<svg width="126" height="79" viewBox="0 0 126 79" fill="none" xmlns="http://www.w3.org/2000/svg">
<path d="M20.7335 15.2506C22.5865 15.2506 24.0762 15.8229 25.2026 16.9674C26.3471 18.0938 26.9193 19.6743 26.9193 21.709V30.5653H23.1043V22.2267C23.1043 21.0459 22.8045 20.1466 22.205 19.5289C21.6055 18.8931 20.788 18.5752 19.7525 18.5752C18.717 18.5752 17.8904 18.8931 17.2727 19.5289C16.6732 20.1466 16.3735 21.0459 16.3735 22.2267V30.5653H12.5584V22.2267C12.5584 21.0459 12.2587 20.1466 11.6592 19.5289C11.0596 18.8931 10.2421 18.5752 9.20663 18.5752C8.15295 18.5752 7.31727 18.8931 6.6996 19.5289C6.10009 20.1466 5.80034 21.0459 5.80034 22.2267V30.5653H1.9853V15.4686H5.80034V17.2944C6.29085 16.6586 6.9176 16.159 7.68061 15.7956C8.46179 15.4323 9.31563 15.2506 10.2421 15.2506C11.423 15.2506 12.4767 15.505 13.4032 16.0136C14.3297 16.5042 15.0473 17.2127 15.5559 18.1392C16.0465 17.2672 16.755 16.5677 17.6815 16.0409C18.6261 15.5141 19.6435 15.2506 20.7335 15.2506ZM37.7881 30.8106C36.3348 30.8106 35.0268 30.4926 33.8641 29.8568C32.7014 29.2028 31.784 28.2854 31.1118 27.1045C30.4578 25.9237 30.1308 24.5612 30.1308 23.017C30.1308 21.4728 30.4669 20.1103 31.1391 18.9294C31.8294 17.7486 32.765 16.8402 33.9459 16.2044C35.1267 15.5504 36.4438 15.2234 37.8972 15.2234C39.3505 15.2234 40.6676 15.5504 41.8484 16.2044C43.0293 16.8402 43.9558 17.7486 44.628 18.9294C45.3183 20.1103 45.6635 21.4728 45.6635 23.017C45.6635 24.5612 45.3092 25.9237 44.6007 27.1045C43.9104 28.2854 42.9657 29.2028 41.7667 29.8568C40.5858 30.4926 39.2597 30.8106 37.7881 30.8106ZM37.7881 27.486C38.4785 27.486 39.1234 27.3225 39.7229 26.9955C40.3406 26.6503 40.8311 26.1417 41.1944 25.4695C41.5578 24.7973 41.7394 23.9798 41.7394 23.017C41.7394 21.5818 41.3579 20.4827 40.5949 19.7197C39.8501 18.9385 38.9327 18.5479 37.8426 18.5479C36.7526 18.5479 35.8352 18.9385 35.0904 19.7197C34.3637 20.4827 34.0004 21.5818 34.0004 23.017C34.0004 24.4522 34.3546 25.5603 35.0631 26.3415C35.7898 27.1045 36.6981 27.486 37.7881 27.486ZM48.026 22.9625C48.026 21.4365 48.3257 20.083 48.9252 18.9022C49.5429 17.7213 50.3786 16.813 51.4322 16.1771C52.4859 15.5413 53.6577 15.2234 54.9475 15.2234C55.9285 15.2234 56.8641 15.4414 57.7543 15.8774C58.6445 16.2952 59.353 16.8584 59.8798 17.5669V10.4001H63.7494V30.5653H59.8798V28.3308C59.4075 29.0756 58.7444 29.6751 57.8906 30.1293C57.0367 30.5835 56.0466 30.8106 54.9203 30.8106C53.6486 30.8106 52.4859 30.4836 51.4322 29.8295C50.3786 29.1755 49.5429 28.2581 48.9252 27.0773C48.3257 25.8783 48.026 24.5067 48.026 22.9625ZM59.9071 23.017C59.9071 22.0905 59.7254 21.3002 59.3621 20.6462C58.9987 19.974 58.5082 19.4654 57.8906 19.1202C57.2729 18.7568 56.6098 18.5752 55.9013 18.5752C55.1928 18.5752 54.5388 18.7478 53.9393 19.0929C53.3398 19.4381 52.8493 19.9468 52.4678 20.6189C52.1044 21.273 51.9228 22.0541 51.9228 22.9625C51.9228 23.8708 52.1044 24.6702 52.4678 25.3605C52.8493 26.0327 53.3398 26.5504 53.9393 26.9138C54.557 27.2771 55.211 27.4588 55.9013 27.4588C56.6098 27.4588 57.2729 27.2862 57.8906 26.941C58.5082 26.5777 58.9987 26.069 59.3621 25.415C59.7254 24.7428 59.9071 23.9435 59.9071 23.017ZM82.2724 15.4686V30.5653H78.4301V28.6578C77.9396 29.3118 77.2946 29.8295 76.4953 30.2111C75.7141 30.5744 74.8603 30.7561 73.9338 30.7561C72.7529 30.7561 71.7083 30.5108 70.8 30.0203C69.8916 29.5116 69.174 28.7759 68.6472 27.813C68.1385 26.832 67.8842 25.6693 67.8842 24.325V15.4686H71.6992V23.78C71.6992 24.979 71.999 25.9055 72.5985 26.5595C73.198 27.1954 74.0155 27.5133 75.051 27.5133C76.1047 27.5133 76.9313 27.1954 77.5308 26.5595C78.1303 25.9055 78.4301 24.979 78.4301 23.78V15.4686H82.2724ZM90.3966 10.4001V30.5653H86.5815V10.4001H90.3966ZM108.745 22.69C108.745 23.235 108.708 23.7255 108.636 24.1615H97.5994C97.6902 25.2515 98.0717 26.1053 98.7439 26.723C99.4161 27.3407 100.243 27.6495 101.224 27.6495C102.641 27.6495 103.649 27.0409 104.248 25.8238H108.363C107.927 27.2771 107.092 28.4761 105.856 29.4208C104.621 30.3473 103.104 30.8106 101.305 30.8106C99.8521 30.8106 98.544 30.4926 97.3814 29.8568C96.2369 29.2028 95.3376 28.2854 94.6836 27.1045C94.0477 25.9237 93.7298 24.5612 93.7298 23.017C93.7298 21.4546 94.0477 20.083 94.6836 18.9022C95.3194 17.7213 96.2096 16.813 97.3541 16.1771C98.4986 15.5413 99.8157 15.2234 101.305 15.2234C102.741 15.2234 104.021 15.5322 105.148 16.1499C106.292 16.7676 107.173 17.6487 107.791 18.7932C108.427 19.9195 108.745 21.2185 108.745 22.69ZM104.793 21.6C104.775 20.6189 104.421 19.8378 103.731 19.2564C103.04 18.6569 102.196 18.3572 101.196 18.3572C100.252 18.3572 99.4524 18.6478 98.7984 19.2292C98.1625 19.7924 97.772 20.5826 97.6266 21.6H104.793ZM115.971 27.3498H124.528V30.5653H111.557V27.6223L120.059 14.7601H111.557V11.5446H124.528V14.4876L115.971 27.3498Z" fill="#CAE9FF"/>
<path d="M26.4386 53.1479C26.4386 52.3493 26.6169 51.6361 26.9735 51.0081C27.3379 50.3723 27.8302 49.88 28.4505 49.5311C29.0785 49.1745 29.7801 48.9962 30.5554 48.9962C31.4625 48.9962 32.2572 49.2288 32.9394 49.6939C33.6217 50.1591 34.0985 50.8026 34.3699 51.6244H32.4975C32.3114 51.2368 32.0478 50.9461 31.7067 50.7522C31.3733 50.5584 30.9857 50.4615 30.5438 50.4615C30.0708 50.4615 29.6483 50.5739 29.2762 50.7987C28.9118 51.0158 28.6249 51.3259 28.4156 51.7291C28.214 52.1323 28.1132 52.6052 28.1132 53.1479C28.1132 53.6828 28.214 54.1558 28.4156 54.5667C28.6249 54.9698 28.9118 55.2838 29.2762 55.5087C29.6483 55.7258 30.0708 55.8343 30.5438 55.8343C30.9857 55.8343 31.3733 55.7374 31.7067 55.5436C32.0478 55.342 32.3114 55.0474 32.4975 54.6597H34.3699C34.0985 55.4893 33.6217 56.1367 32.9394 56.6018C32.2649 57.0593 31.4702 57.288 30.5554 57.288C29.7801 57.288 29.0785 57.1135 28.4505 56.7647C27.8302 56.408 27.3379 55.9157 26.9735 55.2877C26.6169 54.6597 26.4386 53.9464 26.4386 53.1479ZM38.8539 57.3229C38.2337 57.3229 37.6755 57.1872 37.1793 56.9158C36.6831 56.6367 36.2916 56.2452 36.0047 55.7413C35.7256 55.2373 35.586 54.6558 35.586 53.9968C35.586 53.3378 35.7295 52.7564 36.0163 52.2524C36.3109 51.7485 36.7102 51.3608 37.2142 51.0895C37.7181 50.8104 38.2802 50.6708 38.9004 50.6708C39.5207 50.6708 40.0828 50.8104 40.5867 51.0895C41.0906 51.3608 41.486 51.7485 41.7729 52.2524C42.0675 52.7564 42.2148 53.3378 42.2148 53.9968C42.2148 54.6558 42.0636 55.2373 41.7613 55.7413C41.4667 56.2452 41.0635 56.6367 40.5518 56.9158C40.0479 57.1872 39.4819 57.3229 38.8539 57.3229ZM38.8539 55.9041C39.1485 55.9041 39.4238 55.8343 39.6796 55.6947C39.9432 55.5474 40.1525 55.3304 40.3076 55.0435C40.4627 54.7566 40.5402 54.4078 40.5402 53.9968C40.5402 53.3844 40.3774 52.9153 40.0517 52.5897C39.7339 52.2563 39.3423 52.0896 38.8772 52.0896C38.412 52.0896 38.0205 52.2563 37.7026 52.5897C37.3925 52.9153 37.2374 53.3844 37.2374 53.9968C37.2374 54.6093 37.3886 55.0823 37.691 55.4156C38.0011 55.7413 38.3887 55.9041 38.8539 55.9041ZM48.5958 52.3804V53.7526H43.665V52.3804H48.5958ZM55.6666 49.1008V50.415H52.2825V52.4966H54.8758V53.7875H52.2825V57.2182H50.6543V49.1008H55.6666ZM59.9146 57.3229C59.2943 57.3229 58.7361 57.1872 58.2399 56.9158C57.7437 56.6367 57.3522 56.2452 57.0654 55.7413C56.7862 55.2373 56.6467 54.6558 56.6467 53.9968C56.6467 53.3378 56.7901 52.7564 57.077 52.2524C57.3716 51.7485 57.7709 51.3608 58.2748 51.0895C58.7788 50.8104 59.3408 50.6708 59.9611 50.6708C60.5813 50.6708 61.1434 50.8104 61.6474 51.0895C62.1513 51.3608 62.5467 51.7485 62.8336 52.2524C63.1282 52.7564 63.2755 53.3378 63.2755 53.9968C63.2755 54.6558 63.1243 55.2373 62.8219 55.7413C62.5273 56.2452 62.1242 56.6367 61.6125 56.9158C61.1085 57.1872 60.5426 57.3229 59.9146 57.3229ZM59.9146 55.9041C60.2092 55.9041 60.4844 55.8343 60.7403 55.6947C61.0039 55.5474 61.2132 55.3304 61.3682 55.0435C61.5233 54.7566 61.6008 54.4078 61.6008 53.9968C61.6008 53.3844 61.438 52.9153 61.1124 52.5897C60.7945 52.2563 60.403 52.0896 59.9378 52.0896C59.4726 52.0896 59.0811 52.2563 58.7632 52.5897C58.4531 52.9153 58.2981 53.3844 58.2981 53.9968C58.2981 54.6093 58.4493 55.0823 58.7516 55.4156C59.0617 55.7413 59.4494 55.9041 59.9146 55.9041ZM70.7846 50.7755V57.2182H69.1448V56.4041C68.9355 56.6832 68.6602 56.9042 68.3191 57.067C67.9857 57.2221 67.6213 57.2996 67.2259 57.2996C66.722 57.2996 66.2762 57.1949 65.8886 56.9856C65.5009 56.7685 65.1947 56.4545 64.9698 56.0436C64.7527 55.625 64.6442 55.1288 64.6442 54.5551V50.7755H66.2723V54.3225C66.2723 54.8342 66.4003 55.2296 66.6561 55.5087C66.9119 55.78 67.2608 55.9157 67.7028 55.9157C68.1524 55.9157 68.5052 55.78 68.761 55.5087C69.0169 55.2296 69.1448 54.8342 69.1448 54.3225V50.7755H70.7846ZM76.1938 50.6825C76.9613 50.6825 77.5816 50.9267 78.0545 51.4151C78.5274 51.8958 78.7639 52.5703 78.7639 53.4386V57.2182H77.1358V53.6596C77.1358 53.1479 77.0079 52.7564 76.752 52.485C76.4962 52.2059 76.1473 52.0664 75.7054 52.0664C75.2557 52.0664 74.899 52.2059 74.6354 52.485C74.3796 52.7564 74.2517 53.1479 74.2517 53.6596V57.2182H72.6235V50.7755H74.2517V51.5779C74.4688 51.2988 74.744 51.0817 75.0774 50.9267C75.4185 50.7639 75.7906 50.6825 76.1938 50.6825ZM80.1261 53.9736C80.1261 53.3223 80.254 52.7447 80.5099 52.2408C80.7735 51.7369 81.1301 51.3492 81.5798 51.0779C82.0294 50.8065 82.5295 50.6708 83.08 50.6708C83.4986 50.6708 83.8979 50.7639 84.2778 50.9499C84.6577 51.1282 84.9601 51.3686 85.1849 51.671V48.6124H86.8363V57.2182H85.1849V56.2646C84.9833 56.5825 84.7003 56.8383 84.3359 57.0321C83.9716 57.226 83.549 57.3229 83.0683 57.3229C82.5256 57.3229 82.0294 57.1833 81.5798 56.9042C81.1301 56.6251 80.7735 56.2336 80.5099 55.7296C80.254 55.2179 80.1261 54.6326 80.1261 53.9736ZM85.1965 53.9968C85.1965 53.6014 85.119 53.2642 84.9639 52.9851C84.8089 52.6982 84.5995 52.4811 84.3359 52.3338C84.0723 52.1788 83.7894 52.1012 83.487 52.1012C83.1846 52.1012 82.9055 52.1749 82.6497 52.3222C82.3938 52.4695 82.1845 52.6866 82.0217 52.9735C81.8666 53.2526 81.7891 53.5859 81.7891 53.9736C81.7891 54.3612 81.8666 54.7024 82.0217 54.997C82.1845 55.2838 82.3938 55.5048 82.6497 55.6599C82.9133 55.8149 83.1924 55.8924 83.487 55.8924C83.7894 55.8924 84.0723 55.8188 84.3359 55.6715C84.5995 55.5164 84.8089 55.2993 84.9639 55.0202C85.119 54.7334 85.1965 54.3922 85.1965 53.9968ZM94.6482 53.8573C94.6482 54.0899 94.6327 54.2992 94.6017 54.4853H89.8917C89.9305 54.9505 90.0933 55.3148 90.3802 55.5784C90.667 55.842 91.0198 55.9738 91.4385 55.9738C92.0432 55.9738 92.4735 55.7141 92.7293 55.1947H94.4854C94.2993 55.8149 93.9427 56.3266 93.4155 56.7298C92.8883 57.1252 92.2409 57.3229 91.4733 57.3229C90.8531 57.3229 90.2949 57.1872 89.7987 56.9158C89.3103 56.6367 88.9265 56.2452 88.6474 55.7413C88.376 55.2373 88.2404 54.6558 88.2404 53.9968C88.2404 53.3301 88.376 52.7447 88.6474 52.2408C88.9187 51.7369 89.2986 51.3492 89.7871 51.0779C90.2755 50.8065 90.8376 50.6708 91.4733 50.6708C92.0858 50.6708 92.6324 50.8026 93.1131 51.0662C93.6015 51.3298 93.9775 51.7058 94.2411 52.1943C94.5125 52.675 94.6482 53.2293 94.6482 53.8573ZM92.9619 53.3921C92.9542 52.9735 92.803 52.6401 92.5084 52.392C92.2137 52.1361 91.8532 52.0082 91.4268 52.0082C91.0237 52.0082 90.6825 52.1323 90.4034 52.3804C90.1321 52.6207 89.9654 52.9579 89.9034 53.3921H92.9619ZM97.6973 51.7756C97.9066 51.4345 98.178 51.167 98.5113 50.9732C98.8525 50.7794 99.2401 50.6825 99.6743 50.6825V52.392H99.244C98.7323 52.392 98.3446 52.5122 98.081 52.7525C97.8252 52.9928 97.6973 53.4115 97.6973 54.0085V57.2182H96.0691V50.7755H97.6973V51.7756ZM21.9768 72.6715H18.7438L18.2088 74.2182H16.4993L19.4183 66.0892H21.3139L24.2329 74.2182H22.5117L21.9768 72.6715ZM21.5348 71.369L20.3603 67.9732L19.1857 71.369H21.5348ZM27.4521 69.1129V72.2296C27.4521 72.4466 27.5025 72.6056 27.6033 72.7064C27.7119 72.7994 27.8902 72.8459 28.1383 72.8459H28.8942V74.2182H27.8708C26.4985 74.2182 25.8124 73.5514 25.8124 72.2179V69.1129H25.0449V67.7755H25.8124V66.1823H27.4521V67.7755H28.8942V69.1129H27.4521ZM42.1515 66.1008V74.2182H40.5234V68.9384L38.3487 74.2182H37.1159L34.9296 68.9384V74.2182H33.3015V66.1008H35.1506L37.7323 72.1365L40.314 66.1008H42.1515ZM46.8546 74.3229C46.2344 74.3229 45.6762 74.1872 45.18 73.9158C44.6838 73.6367 44.2922 73.2452 44.0054 72.7413C43.7263 72.2373 43.5867 71.6558 43.5867 70.9968C43.5867 70.3378 43.7302 69.7564 44.017 69.2524C44.3116 68.7485 44.7109 68.3608 45.2149 68.0895C45.7188 67.8104 46.2809 67.6708 46.9011 67.6708C47.5214 67.6708 48.0834 67.8104 48.5874 68.0895C49.0913 68.3608 49.4867 68.7485 49.7736 69.2524C50.0682 69.7564 50.2155 70.3378 50.2155 70.9968C50.2155 71.6558 50.0643 72.2373 49.762 72.7413C49.4674 73.2452 49.0642 73.6367 48.5525 73.9158C48.0486 74.1872 47.4826 74.3229 46.8546 74.3229ZM46.8546 72.9041C47.1492 72.9041 47.4244 72.8343 47.6803 72.6947C47.9439 72.5474 48.1532 72.3304 48.3083 72.0435C48.4633 71.7566 48.5409 71.4078 48.5409 70.9968C48.5409 70.3844 48.3781 69.9153 48.0524 69.5897C47.7346 69.2563 47.343 69.0896 46.8779 69.0896C46.4127 69.0896 46.0212 69.2563 45.7033 69.5897C45.3932 69.9153 45.2381 70.3844 45.2381 70.9968C45.2381 71.6093 45.3893 72.0823 45.6917 72.4156C46.0018 72.7413 46.3894 72.9041 46.8546 72.9041ZM51.2237 70.9736C51.2237 70.3223 51.3517 69.7447 51.6075 69.2408C51.8711 68.7369 52.2277 68.3492 52.6774 68.0779C53.1271 67.8065 53.6271 67.6708 54.1776 67.6708C54.5963 67.6708 54.9955 67.7639 55.3754 67.9499C55.7553 68.1282 56.0577 68.3686 56.2825 68.671V65.6124H57.9339V74.2182H56.2825V73.2646C56.081 73.5825 55.798 73.8383 55.4336 74.0321C55.0692 74.226 54.6467 74.3229 54.166 74.3229C53.6233 74.3229 53.1271 74.1833 52.6774 73.9042C52.2277 73.6251 51.8711 73.2336 51.6075 72.7296C51.3517 72.2179 51.2237 71.6326 51.2237 70.9736ZM56.2942 70.9968C56.2942 70.6014 56.2166 70.2642 56.0616 69.9851C55.9065 69.6982 55.6972 69.4811 55.4336 69.3338C55.17 69.1788 54.887 69.1012 54.5846 69.1012C54.2823 69.1012 54.0032 69.1749 53.7473 69.3222C53.4915 69.4695 53.2821 69.6866 53.1193 69.9735C52.9643 70.2526 52.8867 70.5859 52.8867 70.9736C52.8867 71.3612 52.9643 71.7024 53.1193 71.997C53.2821 72.2838 53.4915 72.5048 53.7473 72.6599C54.0109 72.8149 54.29 72.8924 54.5846 72.8924C54.887 72.8924 55.17 72.8188 55.4336 72.6715C55.6972 72.5164 55.9065 72.2993 56.0616 72.0202C56.2166 71.7334 56.2942 71.3922 56.2942 70.9968ZM65.8389 67.7755V74.2182H64.1991V73.4041C63.9898 73.6832 63.7145 73.9042 63.3734 74.067C63.04 74.2221 62.6756 74.2996 62.2802 74.2996C61.7763 74.2996 61.3305 74.1949 60.9429 73.9856C60.5552 73.7685 60.249 73.4545 60.0241 73.0436C59.807 72.625 59.6985 72.1288 59.6985 71.5551V67.7755H61.3266V71.3225C61.3266 71.8342 61.4546 72.2296 61.7104 72.5087C61.9663 72.78 62.3151 72.9157 62.7571 72.9157C63.2067 72.9157 63.5595 72.78 63.8153 72.5087C64.0712 72.2296 64.1991 71.8342 64.1991 71.3225V67.7755H65.8389ZM69.306 65.6124V74.2182H67.6779V65.6124H69.306ZM77.1363 70.8573C77.1363 71.0899 77.1208 71.2992 77.0898 71.4853H72.3799C72.4186 71.9505 72.5814 72.3148 72.8683 72.5784C73.1552 72.842 73.5079 72.9738 73.9266 72.9738C74.5313 72.9738 74.9616 72.7141 75.2175 72.1947H76.9735C76.7874 72.8149 76.4308 73.3266 75.9036 73.7298C75.3764 74.1252 74.729 74.3229 73.9615 74.3229C73.3412 74.3229 72.783 74.1872 72.2868 73.9158C71.7984 73.6367 71.4146 73.2452 71.1355 72.7413C70.8642 72.2373 70.7285 71.6558 70.7285 70.9968C70.7285 70.3301 70.8642 69.7447 71.1355 69.2408C71.4069 68.7369 71.7868 68.3492 72.2752 68.0779C72.7636 67.8065 73.3257 67.6708 73.9615 67.6708C74.574 67.6708 75.1205 67.8026 75.6012 68.0662C76.0897 68.3298 76.4657 68.7058 76.7293 69.1943C77.0006 69.675 77.1363 70.2293 77.1363 70.8573ZM75.45 70.3921C75.4423 69.9735 75.2911 69.6401 74.9965 69.392C74.7019 69.1361 74.3414 69.0082 73.915 69.0082C73.5118 69.0082 73.1707 69.1323 72.8916 69.3804C72.6202 69.6207 72.4535 69.9579 72.3915 70.3921H75.45ZM80.0459 72.8808H82.9183V74.2182H78.1968V72.9041L81.0111 69.1129H78.2084V67.7755H82.8834V69.0896L80.0459 72.8808ZM85.1326 74.2996C84.8379 74.2996 84.5937 74.2104 84.3999 74.0321C84.2138 73.8461 84.1208 73.6173 84.1208 73.346C84.1208 73.0746 84.2138 72.8498 84.3999 72.6715C84.5937 72.4854 84.8379 72.3924 85.1326 72.3924C85.4194 72.3924 85.6559 72.4854 85.842 72.6715C86.028 72.8498 86.1211 73.0746 86.1211 73.346C86.1211 73.6173 86.028 73.8461 85.842 74.0321C85.6559 74.2104 85.4194 74.2996 85.1326 74.2996ZM90.5026 66.1008C91.3555 66.1008 92.1036 66.2675 92.7471 66.6009C93.3984 66.9343 93.8984 67.4111 94.2473 68.0313C94.604 68.6438 94.7823 69.3571 94.7823 70.1712C94.7823 70.9852 94.604 71.6985 94.2473 72.311C93.8984 72.9157 93.3984 73.3848 92.7471 73.7181C92.1036 74.0515 91.3555 74.2182 90.5026 74.2182H87.6651V66.1008H90.5026ZM90.4445 72.8343C91.2973 72.8343 91.9563 72.6017 92.4215 72.1365C92.8867 71.6714 93.1193 71.0162 93.1193 70.1712C93.1193 69.3261 92.8867 68.6671 92.4215 68.1941C91.9563 67.7135 91.2973 67.4731 90.4445 67.4731H89.2932V72.8343H90.4445ZM102.223 70.8573C102.223 71.0899 102.207 71.2992 102.176 71.4853H97.4663C97.5051 71.9505 97.6679 72.3148 97.9547 72.5784C98.2416 72.842 98.5944 72.9738 99.013 72.9738C99.6178 72.9738 100.048 72.7141 100.304 72.1947H102.06C101.874 72.8149 101.517 73.3266 100.99 73.7298C100.463 74.1252 99.8155 74.3229 99.0479 74.3229C98.4277 74.3229 97.8695 74.1872 97.3733 73.9158C96.8848 73.6367 96.5011 73.2452 96.222 72.7413C95.9506 72.2373 95.8149 71.6558 95.8149 70.9968C95.8149 70.3301 95.9506 69.7447 96.222 69.2408C96.4933 68.7369 96.8732 68.3492 97.3616 68.0779C97.8501 67.8065 98.4122 67.6708 99.0479 67.6708C99.6604 67.6708 100.207 67.8026 100.688 68.0662C101.176 68.3298 101.552 68.7058 101.816 69.1943C102.087 69.675 102.223 70.2293 102.223 70.8573ZM100.536 70.3921C100.529 69.9735 100.378 69.6401 100.083 69.392C99.7883 69.1361 99.4278 69.0082 99.0014 69.0082C98.5982 69.0082 98.2571 69.1323 97.978 69.3804C97.7066 69.6207 97.54 69.9579 97.4779 70.3921H100.536ZM106.33 72.718L107.958 67.7755H109.691L107.307 74.2182H105.33L102.958 67.7755H104.702L106.33 72.718Z" fill="#CAE9FF"/>
</svg>
