<svg width="83" height="84" viewBox="0 0 83 84" fill="none" xmlns="http://www.w3.org/2000/svg">
<path d="M16.7239 30.8036C18.8288 29.0496 20.5061 27.5916 21.7558 26.4295C23.0056 25.2455 24.047 24.0177 24.8802 22.746C25.7134 21.4743 26.13 20.2246 26.13 18.9967C26.13 17.8785 25.8669 17.0015 25.3407 16.3657C24.8144 15.7298 24.0032 15.4119 22.9069 15.4119C21.8106 15.4119 20.9665 15.7847 20.3745 16.5301C19.7825 17.2537 19.4756 18.2513 19.4536 19.523H14.9808C15.0685 16.8919 15.8469 14.8967 17.3159 13.5373C18.8068 12.1779 20.6924 11.4982 22.9727 11.4982C25.4722 11.4982 27.3907 12.1669 28.7281 13.5044C30.0656 14.8199 30.7343 16.563 30.7343 18.7336C30.7343 20.4438 30.2739 22.0773 29.353 23.634C28.4322 25.1907 27.3797 26.5501 26.1957 27.7121C25.0118 28.8523 23.466 30.2336 21.5585 31.8561H31.2605V35.6711H15.0137V32.2507L16.7239 30.8036ZM34.8855 18.339C34.9951 16.1464 35.7625 14.4582 37.1876 13.2742C38.6347 12.0683 40.5313 11.4653 42.8773 11.4653C44.4779 11.4653 45.8482 11.7504 46.9883 12.3204C48.1285 12.8686 48.9836 13.625 49.5536 14.5897C50.1456 15.5325 50.4416 16.6069 50.4416 17.8128C50.4416 19.1941 50.0798 20.3671 49.3563 21.3318C48.6547 22.2746 47.8106 22.9105 46.8239 23.2393V23.3709C48.0956 23.7656 49.0822 24.4672 49.7839 25.4757C50.5074 26.4843 50.8692 27.7779 50.8692 29.3566C50.8692 30.6721 50.5622 31.8451 49.9483 32.8756C49.3563 33.9061 48.4683 34.7174 47.2843 35.3093C46.1223 35.8794 44.7191 36.1644 43.0746 36.1644C40.5971 36.1644 38.5799 35.5396 37.0232 34.2898C35.4665 33.0401 34.6443 31.1983 34.5566 28.7646H39.0294C39.0732 29.8389 39.435 30.705 40.1147 31.3627C40.8163 31.9986 41.7701 32.3165 42.976 32.3165C44.0942 32.3165 44.9493 32.0096 45.5413 31.3956C46.1552 30.7598 46.4621 29.9486 46.4621 28.9619C46.4621 27.6464 46.0455 26.7036 45.2124 26.1335C44.3792 25.5634 43.0856 25.2784 41.3316 25.2784H40.3778V21.4963H41.3316C44.445 21.4963 46.0017 20.4548 46.0017 18.3719C46.0017 17.4291 45.7167 16.6946 45.1466 16.1684C44.5985 15.6421 43.7982 15.379 42.7458 15.379C41.7153 15.379 40.915 15.6641 40.3449 16.2341C39.7968 16.7823 39.4789 17.4839 39.3911 18.339H34.8855ZM72.8922 26.298H66.6764V32.6783H62.3351V26.298H56.1192V22.2856H62.3351V15.9052H66.6764V22.2856H72.8922V26.298Z" fill="#CAE9FF"/>
<path d="M22.1814 56.727C22.1814 57.1612 22.0767 57.5682 21.8674 57.9481C21.6658 58.328 21.3441 58.6342 20.9022 58.8668C20.468 59.0994 19.9175 59.2157 19.2508 59.2157H17.8901V62.3324H16.262V54.215H19.2508C19.8788 54.215 20.4137 54.3236 20.8556 54.5407C21.2976 54.7578 21.6271 55.0562 21.8441 55.4361C22.069 55.816 22.1814 56.2463 22.1814 56.727ZM19.181 57.9016C19.6307 57.9016 19.9641 57.8008 20.1811 57.5992C20.3982 57.3899 20.5068 57.0991 20.5068 56.727C20.5068 55.9362 20.0648 55.5408 19.181 55.5408H17.8901V57.9016H19.181ZM25.1981 56.8898C25.4074 56.5487 25.6787 56.2812 26.0121 56.0874C26.3533 55.8936 26.7409 55.7966 27.1751 55.7966V57.5062H26.7448C26.2331 57.5062 25.8454 57.6263 25.5818 57.8667C25.326 58.107 25.1981 58.5257 25.1981 59.1227V62.3324H23.5699V55.8897H25.1981V56.8898ZM31.3651 62.4371C30.7449 62.4371 30.1867 62.3014 29.6905 62.03C29.1943 61.7509 28.8028 61.3594 28.5159 60.8555C28.2368 60.3515 28.0972 59.77 28.0972 59.111C28.0972 58.452 28.2407 57.8706 28.5275 57.3666C28.8221 56.8627 29.2214 56.475 29.7254 56.2037C30.2293 55.9246 30.7914 55.785 31.4116 55.785C32.0319 55.785 32.594 55.9246 33.0979 56.2037C33.6019 56.475 33.9973 56.8627 34.2841 57.3666C34.5787 57.8706 34.726 58.452 34.726 59.111C34.726 59.77 34.5748 60.3515 34.2725 60.8555C33.9779 61.3594 33.5747 61.7509 33.063 62.03C32.5591 62.3014 31.9931 62.4371 31.3651 62.4371ZM31.3651 61.0183C31.6597 61.0183 31.935 60.9485 32.1908 60.8089C32.4544 60.6616 32.6637 60.4446 32.8188 60.1577C32.9739 59.8708 33.0514 59.5219 33.0514 59.111C33.0514 58.4986 32.8886 58.0295 32.563 57.7039C32.2451 57.3705 31.8536 57.2038 31.3884 57.2038C30.9232 57.2038 30.5317 57.3705 30.2138 57.7039C29.9037 58.0295 29.7486 58.4986 29.7486 59.111C29.7486 59.7235 29.8998 60.1965 30.2022 60.5298C30.5123 60.8555 30.8999 61.0183 31.3651 61.0183ZM36.9786 55.1221C36.684 55.1221 36.4398 55.033 36.2459 54.8547C36.0599 54.6686 35.9668 54.4399 35.9668 54.1685C35.9668 53.8972 36.0599 53.6723 36.2459 53.494C36.4398 53.3079 36.684 53.2149 36.9786 53.2149C37.2655 53.2149 37.5019 53.3079 37.688 53.494C37.8741 53.6723 37.9671 53.8972 37.9671 54.1685C37.9671 54.4399 37.8741 54.6686 37.688 54.8547C37.5019 55.033 37.2655 55.1221 36.9786 55.1221ZM37.781 63.3907C37.781 64.1039 37.6027 64.6156 37.2461 64.9258C36.8972 65.2436 36.3933 65.4026 35.7343 65.4026H35.0132V64.0187H35.4784C35.7265 64.0187 35.9009 63.9683 36.0017 63.8675C36.1025 63.7744 36.1529 63.6194 36.1529 63.4023V55.8897H37.781V63.3907ZM45.6114 58.9715C45.6114 59.2041 45.5959 59.4134 45.5649 59.5995H40.8549C40.8937 60.0647 41.0565 60.429 41.3434 60.6926C41.6302 60.9562 41.983 61.088 42.4016 61.088C43.0064 61.088 43.4367 60.8283 43.6925 60.3089H45.4486C45.2625 60.9291 44.9059 61.4408 44.3787 61.844C43.8515 62.2394 43.2041 62.4371 42.4365 62.4371C41.8163 62.4371 41.2581 62.3014 40.7619 62.03C40.2735 61.7509 39.8897 61.3594 39.6106 60.8555C39.3392 60.3515 39.2036 59.77 39.2036 59.111C39.2036 58.4443 39.3392 57.8589 39.6106 57.355C39.8819 56.8511 40.2618 56.4634 40.7503 56.1921C41.2387 55.9207 41.8008 55.785 42.4365 55.785C43.049 55.785 43.5956 55.9168 44.0763 56.1804C44.5647 56.444 44.9407 56.82 45.2043 57.3085C45.4757 57.7892 45.6114 58.3435 45.6114 58.9715ZM43.9251 58.5063C43.9174 58.0876 43.7662 57.7543 43.4716 57.5062C43.1769 57.2503 42.8164 57.1224 42.39 57.1224C41.9869 57.1224 41.6457 57.2465 41.3666 57.4945C41.0953 57.7349 40.9286 58.0721 40.8666 58.5063H43.9251ZM46.6137 59.111C46.6137 58.4443 46.7494 57.8628 47.0207 57.3666C47.2921 56.8627 47.6681 56.475 48.1488 56.2037C48.6295 55.9246 49.1799 55.785 49.8002 55.785C50.5987 55.785 51.2577 55.9866 51.7772 56.3898C52.3044 56.7852 52.6571 57.3434 52.8354 58.0644H51.0794C50.9864 57.7853 50.8274 57.5682 50.6026 57.4131C50.3855 57.2503 50.1141 57.1689 49.7885 57.1689C49.3233 57.1689 48.9551 57.3395 48.6837 57.6806C48.4124 58.014 48.2767 58.4908 48.2767 59.111C48.2767 59.7235 48.4124 60.2003 48.6837 60.5415C48.9551 60.8748 49.3233 61.0415 49.7885 61.0415C50.4475 61.0415 50.8778 60.7469 51.0794 60.1577H52.8354C52.6571 60.8555 52.3044 61.4098 51.7772 61.8207C51.25 62.2316 50.591 62.4371 49.8002 62.4371C49.1799 62.4371 48.6295 62.3014 48.1488 62.03C47.6681 61.7509 47.2921 61.3633 47.0207 60.8671C46.7494 60.3631 46.6137 59.7778 46.6137 59.111ZM56.1564 57.2271V60.3438C56.1564 60.5608 56.2068 60.7198 56.3076 60.8206C56.4161 60.9136 56.5944 60.9601 56.8425 60.9601H57.5984V62.3324H56.575C55.2028 62.3324 54.5166 61.6656 54.5166 60.3321V57.2271H53.7491V55.8897H54.5166V54.2965H56.1564V55.8897H57.5984V57.2271H56.1564ZM61.4675 62.4371C60.9403 62.4371 60.4674 62.344 60.0487 62.158C59.63 61.9641 59.2967 61.7044 59.0486 61.3788C58.8082 61.0532 58.6764 60.6926 58.6532 60.2972H60.2929C60.3239 60.5453 60.4441 60.7508 60.6534 60.9136C60.8705 61.0764 61.138 61.1578 61.4559 61.1578C61.766 61.1578 62.0063 61.0958 62.1769 60.9718C62.3552 60.8477 62.4444 60.6888 62.4444 60.4949C62.4444 60.2856 62.3358 60.1306 62.1187 60.0298C61.9094 59.9212 61.5722 59.8049 61.107 59.6809C60.6263 59.5646 60.2309 59.4444 59.9208 59.3204C59.6184 59.1963 59.3548 59.0064 59.13 58.7505C58.9129 58.4947 58.8043 58.1497 58.8043 57.7155C58.8043 57.3589 58.9051 57.0332 59.1067 56.7386C59.316 56.444 59.6107 56.2114 59.9905 56.0409C60.3782 55.8703 60.8317 55.785 61.3512 55.785C62.1187 55.785 62.7312 55.9788 63.1886 56.3665C63.6461 56.7464 63.898 57.262 63.9446 57.9132H62.3862C62.363 57.6574 62.2544 57.4558 62.0606 57.3085C61.8745 57.1534 61.6225 57.0759 61.3047 57.0759C61.0101 57.0759 60.7813 57.1302 60.6185 57.2387C60.4635 57.3472 60.3859 57.4984 60.3859 57.6922C60.3859 57.9093 60.4945 58.076 60.7116 58.1923C60.9287 58.3009 61.2659 58.4133 61.7233 58.5296C62.1885 58.6459 62.5723 58.766 62.8746 58.8901C63.177 59.0141 63.4367 59.208 63.6538 59.4716C63.8787 59.7274 63.995 60.0685 64.0027 60.4949C64.0027 60.8671 63.898 61.2005 63.6887 61.4951C63.4871 61.7897 63.1925 62.0223 62.8049 62.1928C62.425 62.3557 61.9792 62.4371 61.4675 62.4371ZM4.10307 71.215C4.95589 71.215 5.70405 71.3817 6.34755 71.7151C6.9988 72.0485 7.49887 72.5253 7.84775 73.1455C8.20439 73.758 8.3827 74.4713 8.3827 75.2854C8.3827 76.0994 8.20439 76.8127 7.84775 77.4252C7.49887 78.0299 6.9988 78.499 6.34755 78.8323C5.70405 79.1657 4.95589 79.3324 4.10307 79.3324H1.26548V71.215H4.10307ZM4.04492 77.9485C4.89775 77.9485 5.55675 77.7159 6.02193 77.2507C6.4871 76.7855 6.71969 76.1304 6.71969 75.2854C6.71969 74.4403 6.4871 73.7813 6.02193 73.3083C5.55675 72.8277 4.89775 72.5873 4.04492 72.5873H2.8936V77.9485H4.04492ZM15.8232 75.9715C15.8232 76.2041 15.8077 76.4134 15.7767 76.5995H11.0667C11.1055 77.0647 11.2683 77.429 11.5552 77.6926C11.842 77.9562 12.1948 78.088 12.6135 78.088C13.2182 78.088 13.6485 77.8283 13.9043 77.3089H15.6604C15.4743 77.9291 15.1177 78.4408 14.5905 78.844C14.0633 79.2394 13.4159 79.4371 12.6483 79.4371C12.0281 79.4371 11.4699 79.3014 10.9737 79.03C10.4853 78.7509 10.1015 78.3594 9.82239 77.8555C9.55104 77.3515 9.41536 76.77 9.41536 76.111C9.41536 75.4443 9.55104 74.8589 9.82239 74.355C10.0937 73.8511 10.4736 73.4634 10.9621 73.1921C11.4505 72.9207 12.0126 72.785 12.6483 72.785C13.2608 72.785 13.8074 72.9168 14.2881 73.1804C14.7765 73.444 15.1526 73.82 15.4162 74.3085C15.6875 74.7892 15.8232 75.3435 15.8232 75.9715ZM14.1369 75.5063C14.1292 75.0876 13.978 74.7543 13.6834 74.5062C13.3888 74.2503 13.0282 74.1224 12.6018 74.1224C12.1987 74.1224 11.8575 74.2465 11.5784 74.4945C11.3071 74.7349 11.1404 75.0721 11.0784 75.5063H14.1369ZM19.9306 77.8322L21.5587 72.8897H23.2915L20.9074 79.3324H18.9304L16.558 72.8897H18.3024L19.9306 77.8322ZM30.4277 75.9715C30.4277 76.2041 30.4122 76.4134 30.3812 76.5995H25.6712C25.71 77.0647 25.8728 77.429 26.1597 77.6926C26.4465 77.9562 26.7993 78.088 27.218 78.088C27.8227 78.088 28.253 77.8283 28.5088 77.3089H30.2649C30.0788 77.9291 29.7222 78.4408 29.195 78.844C28.6678 79.2394 28.0204 79.4371 27.2528 79.4371C26.6326 79.4371 26.0744 79.3014 25.5782 79.03C25.0898 78.7509 24.706 78.3594 24.4269 77.8555C24.1555 77.3515 24.0199 76.77 24.0199 76.111C24.0199 75.4443 24.1555 74.8589 24.4269 74.355C24.6982 73.8511 25.0781 73.4634 25.5666 73.1921C26.055 72.9207 26.6171 72.785 27.2528 72.785C27.8653 72.785 28.4119 72.9168 28.8926 73.1804C29.381 73.444 29.757 73.82 30.0206 74.3085C30.292 74.7892 30.4277 75.3435 30.4277 75.9715ZM28.7414 75.5063C28.7337 75.0876 28.5825 74.7543 28.2879 74.5062C27.9932 74.2503 27.6327 74.1224 27.2063 74.1224C26.8032 74.1224 26.462 74.2465 26.1829 74.4945C25.9116 74.7349 25.7449 75.0721 25.6829 75.5063H28.7414ZM33.4768 70.7266V79.3324H31.8487V70.7266H33.4768ZM38.1788 79.4371C37.5586 79.4371 37.0003 79.3014 36.5042 79.03C36.008 78.7509 35.6164 78.3594 35.3296 77.8555C35.0505 77.3515 34.9109 76.77 34.9109 76.111C34.9109 75.452 35.0543 74.8706 35.3412 74.3666C35.6358 73.8627 36.0351 73.475 36.539 73.2037C37.043 72.9246 37.6051 72.785 38.2253 72.785C38.8455 72.785 39.4076 72.9246 39.9116 73.2037C40.4155 73.475 40.8109 73.8627 41.0978 74.3666C41.3924 74.8706 41.5397 75.452 41.5397 76.111C41.5397 76.77 41.3885 77.3515 41.0862 77.8555C40.7915 78.3594 40.3884 78.7509 39.8767 79.03C39.3728 79.3014 38.8068 79.4371 38.1788 79.4371ZM38.1788 78.0183C38.4734 78.0183 38.7486 77.9485 39.0045 77.8089C39.2681 77.6616 39.4774 77.4446 39.6325 77.1577C39.7875 76.8708 39.8651 76.5219 39.8651 76.111C39.8651 75.4986 39.7023 75.0295 39.3766 74.7039C39.0588 74.3705 38.6672 74.2038 38.2021 74.2038C37.7369 74.2038 37.3453 74.3705 37.0275 74.7039C36.7174 75.0295 36.5623 75.4986 36.5623 76.111C36.5623 76.7235 36.7135 77.1965 37.0158 77.5298C37.326 77.8555 37.7136 78.0183 38.1788 78.0183ZM44.5947 73.82C44.804 73.5254 45.0909 73.2812 45.4553 73.0874C45.8274 72.8858 46.25 72.785 46.7229 72.785C47.2734 72.785 47.7695 72.9207 48.2115 73.1921C48.6611 73.4634 49.0139 73.8511 49.2697 74.355C49.5333 74.8512 49.6651 75.4288 49.6651 76.0878C49.6651 76.7468 49.5333 77.3321 49.2697 77.8438C49.0139 78.3478 48.6611 78.7393 48.2115 79.0184C47.7695 79.2975 47.2734 79.4371 46.7229 79.4371C46.25 79.4371 45.8313 79.3402 45.4669 79.1463C45.1103 78.9525 44.8195 78.7083 44.5947 78.4137V82.4026H42.9666V72.8897H44.5947V73.82ZM48.0021 76.0878C48.0021 75.7001 47.9207 75.3668 47.7579 75.0876C47.6029 74.8008 47.3935 74.5837 47.1299 74.4364C46.8741 74.2891 46.595 74.2154 46.2926 74.2154C45.998 74.2154 45.7189 74.293 45.4553 74.448C45.1994 74.5953 44.9901 74.8124 44.8273 75.0993C44.6722 75.3861 44.5947 75.7234 44.5947 76.111C44.5947 76.4987 44.6722 76.8359 44.8273 77.1228C44.9901 77.4097 45.1994 77.6306 45.4553 77.7857C45.7189 77.933 45.998 78.0066 46.2926 78.0066C46.595 78.0066 46.8741 77.9291 47.1299 77.7741C47.3935 77.619 47.6029 77.398 47.7579 77.1112C47.9207 76.8243 48.0021 76.4832 48.0021 76.0878ZM59.0819 72.7966C59.8727 72.7966 60.5085 73.0409 60.9891 73.5293C61.4776 74.01 61.7218 74.6845 61.7218 75.5528V79.3324H60.0937V75.7738C60.0937 75.2698 59.9657 74.8861 59.7099 74.6225C59.454 74.3511 59.1052 74.2154 58.6632 74.2154C58.2213 74.2154 57.8686 74.3511 57.605 74.6225C57.3491 74.8861 57.2212 75.2698 57.2212 75.7738V79.3324H55.5931V75.7738C55.5931 75.2698 55.4651 74.8861 55.2093 74.6225C54.9535 74.3511 54.6046 74.2154 54.1627 74.2154C53.713 74.2154 53.3563 74.3511 53.0927 74.6225C52.8369 74.8861 52.709 75.2698 52.709 75.7738V79.3324H51.0808V72.8897H52.709V73.6689C52.9183 73.3975 53.1858 73.1843 53.5114 73.0292C53.8448 72.8742 54.2092 72.7966 54.6046 72.7966C55.1085 72.7966 55.5582 72.9052 55.9536 73.1223C56.349 73.3316 56.6552 73.634 56.8723 74.0294C57.0816 73.6572 57.384 73.3587 57.7794 73.1339C58.1826 72.9091 58.6167 72.7966 59.0819 72.7966ZM69.4885 75.9715C69.4885 76.2041 69.473 76.4134 69.442 76.5995H64.7321C64.7709 77.0647 64.9337 77.429 65.2205 77.6926C65.5074 77.9562 65.8601 78.088 66.2788 78.088C66.8835 78.088 67.3138 77.8283 67.5697 77.3089H69.3257C69.1396 77.9291 68.783 78.4408 68.2558 78.844C67.7286 79.2394 67.0812 79.4371 66.3137 79.4371C65.6935 79.4371 65.1352 79.3014 64.6391 79.03C64.1506 78.7509 63.7668 78.3594 63.4877 77.8555C63.2164 77.3515 63.0807 76.77 63.0807 76.111C63.0807 75.4443 63.2164 74.8589 63.4877 74.355C63.7591 73.8511 64.139 73.4634 64.6274 73.1921C65.1159 72.9207 65.6779 72.785 66.3137 72.785C66.9262 72.785 67.4728 72.9168 67.9534 73.1804C68.4419 73.444 68.8179 73.82 69.0815 74.3085C69.3529 74.7892 69.4885 75.3435 69.4885 75.9715ZM67.8023 75.5063C67.7945 75.0876 67.6433 74.7543 67.3487 74.5062C67.0541 74.2503 66.6936 74.1224 66.2672 74.1224C65.864 74.1224 65.5229 74.2465 65.2438 74.4945C64.9724 74.7349 64.8057 75.0721 64.7437 75.5063H67.8023ZM74.4797 72.7966C75.2473 72.7966 75.8675 73.0409 76.3405 73.5293C76.8134 74.01 77.0498 74.6845 77.0498 75.5528V79.3324H75.4217V75.7738C75.4217 75.2621 75.2938 74.8706 75.038 74.5992C74.7821 74.3201 74.4332 74.1806 73.9913 74.1806C73.5416 74.1806 73.185 74.3201 72.9214 74.5992C72.6655 74.8706 72.5376 75.2621 72.5376 75.7738V79.3324H70.9095V72.8897H72.5376V73.6921C72.7547 73.413 73.0299 73.1959 73.3633 73.0409C73.7044 72.8781 74.0766 72.7966 74.4797 72.7966ZM80.7263 74.2271V77.3438C80.7263 77.5608 80.7767 77.7198 80.8775 77.8206C80.986 77.9136 81.1643 77.9601 81.4124 77.9601H82.1683V79.3324H81.145C79.7727 79.3324 79.0865 78.6656 79.0865 77.3321V74.2271H78.319V72.8897H79.0865V71.2965H80.7263V72.8897H82.1683V74.2271H80.7263Z" fill="#CAE9FF"/>
</svg>
